<?xml version="1.0" encoding="UTF-8"?><svg id="Layer_2" xmlns="http://www.w3.org/2000/svg" viewBox="0 0 626.26 177.95"><defs><style>.cls-1,.cls-2,.cls-3,.cls-4{font-family:Gigalypse-Regular, Gigalypse;}.cls-1,.cls-2,.cls-5{fill:#221f20;}.cls-1,.cls-3{font-size:120.8px;}.cls-2,.cls-4{font-size:59.38px;}.cls-6,.cls-3,.cls-4{fill:#fce38e;stroke:#221f20;stroke-miterlimit:10;stroke-width:2px;}</style></defs><g id="Layer_2-2"><text class="cls-1" transform="translate(4.4 107.65)"><tspan x="0" y="0">COOKING</tspan></text><text class="cls-3" transform="translate(1 103.68)"><tspan x="0" y="0">COOKING</tspan></text><path class="cls-5" d="M38.46,128.85c.7-.08,2.73-.16,4.1-.16,1.68,0,3.55.08,4.21.16.7.08,1.01.43,1.05,1.4.12,3.16.12,7.49.12,12.13s0,8.93-.12,12.09c-.04.98-.31,1.33-1.01,1.4-.7.08-2.61.16-4.25.16-1.4,0-2.38-.04-3.04-.12-1.91-.19-2.3-.43-3.2-1.91l-5.19-8.42v8.85c0,.98-.27,1.33-1.01,1.4-.7.08-2.73.16-4.1.16-1.68,0-3.55-.08-4.21-.16-.7-.08-1.01-.43-1.05-1.4-.12-3.16-.12-7.45-.12-12.09s0-8.93.12-12.09c.04-.98.43-1.33,1.25-1.4.78-.08,2.89-.16,4.13-.16,1.01,0,2.26.04,2.73.08,1.91.19,2.3.47,3.2,1.95l5.38,8.74v-9.2c0-.98.27-1.33,1.01-1.4Z"/><path class="cls-6" d="M36.05,126.32c.7-.08,2.73-.16,4.1-.16,1.68,0,3.55.08,4.21.16.7.08,1.01.43,1.05,1.4.12,3.16.12,7.49.12,12.13s0,8.93-.12,12.09c-.04.98-.31,1.33-1.01,1.4-.7.08-2.61.16-4.25.16-1.4,0-2.38-.04-3.04-.12-1.91-.19-2.3-.43-3.2-1.91l-5.19-8.42v8.85c0,.98-.27,1.33-1.01,1.4-.7.08-2.73.16-4.1.16-1.68,0-3.55-.08-4.21-.16-.7-.08-1.01-.43-1.05-1.4-.12-3.16-.12-7.45-.12-12.09s0-8.93.12-12.09c.04-.98.43-1.33,1.25-1.4.78-.08,2.89-.16,4.13-.16,1.01,0,2.26.04,2.73.08,1.91.19,2.3.47,3.2,1.95l5.38,8.74v-9.2c0-.98.27-1.33,1.01-1.4Z"/><path class="cls-5" d="M98.32,128.83c2.85.31,3.78.74,4.37,3.39.43,1.87.82,5.58.82,10.14s-.39,8.27-.82,10.14c-.58,2.65-1.52,3.08-4.37,3.39-2.07.23-6.12.39-8.5.39s-6.44-.16-8.5-.39c-2.85-.31-3.78-.74-4.37-3.39-.43-1.87-.82-5.58-.82-10.14s.39-8.27.82-10.14c.58-2.65,1.52-3.08,4.37-3.39,2.07-.23,6.12-.39,8.5-.39s6.44.16,8.5.39ZM88.84,135.62c-.39.08-.59.19-.62.62-.12,1.56-.12,3.94-.12,6.12s0,4.56.12,6.12c.04.47.23.55.62.62.23.04.66.08.98.08s.74-.04.98-.08c.39-.08.58-.2.62-.62.12-1.56.12-3.94.12-6.12s0-4.56-.12-6.12c-.04-.47-.23-.55-.62-.62-.23-.04-.66-.08-.98-.08s-.78.04-.98.08Z"/><path class="cls-6" d="M95.91,126.3c2.85.31,3.78.74,4.37,3.39.43,1.87.82,5.58.82,10.14s-.39,8.27-.82,10.14c-.58,2.65-1.52,3.08-4.37,3.39-2.07.23-6.12.39-8.5.39s-6.44-.16-8.5-.39c-2.85-.31-3.78-.74-4.37-3.39-.43-1.87-.82-5.58-.82-10.14s.39-8.27.82-10.14c.58-2.65,1.52-3.08,4.37-3.39,2.07-.23,6.12-.39,8.5-.39s6.44.16,8.5.39ZM86.43,133.08c-.39.08-.59.19-.62.62-.12,1.56-.12,3.94-.12,6.12s0,4.56.12,6.12c.04.47.23.55.62.62.23.04.66.08.98.08s.74-.04.98-.08c.39-.08.58-.2.62-.62.12-1.56.12-3.94.12-6.12s0-4.56-.12-6.12c-.04-.47-.23-.55-.62-.62-.23-.04-.66-.08-.98-.08s-.78.04-.98.08Z"/><path class="cls-5" d="M162.19,135.04c0,.78,0,2.22-.04,3-.04.98-.59,1.4-1.56,1.4-1.21,0-3.98-.08-5.58-.08v4.76c0,4.64,0,8.93-.12,12.09-.04.98-.43,1.33-1.25,1.4-.78.08-2.77.16-4.72.16s-3.94-.08-4.72-.16c-.82-.08-1.21-.43-1.25-1.4-.12-3.16-.12-7.45-.12-12.09v-4.76c-1.6,0-4.37.08-5.58.08-.98,0-1.52-.43-1.56-1.4-.04-.78-.04-2.22-.04-3s0-2.22.04-3c.04-.98.59-1.33,1.36-1.4,1.09-.12,7.53-.16,11.86-.16s10.76.08,11.86.16c.78.08,1.33.43,1.37,1.4.04.78.04,2.22.04,3Z"/><path class="cls-6" d="M159.77,132.51c0,.78,0,2.22-.04,3-.04.98-.59,1.4-1.56,1.4-1.21,0-3.98-.08-5.58-.08v4.76c0,4.64,0,8.93-.12,12.09-.04.98-.43,1.33-1.25,1.4-.78.08-2.77.16-4.72.16s-3.94-.08-4.72-.16c-.82-.08-1.21-.43-1.25-1.4-.12-3.16-.12-7.45-.12-12.09v-4.76c-1.6,0-4.37.08-5.58.08-.98,0-1.52-.43-1.56-1.4-.04-.78-.04-2.22-.04-3s0-2.22.04-3c.04-.98.59-1.33,1.36-1.4,1.09-.12,7.53-.16,11.86-.16s10.76.08,11.86.16c.78.08,1.33.43,1.37,1.4.04.78.04,2.22.04,3Z"/><path class="cls-5" d="M225.13,154.73c0,.7-.35,1.09-1.13,1.17s-2.96.16-4.76.16-3.55-.04-4.33-.12c-1.29-.12-1.48-.31-1.72-1.83l-.35-2.26h-4.13l-.35,2.26c-.23,1.52-.43,1.72-1.72,1.83-.78.08-2.53.12-4.33.12s-3.98-.08-4.76-.16-1.13-.47-1.13-1.17c0-.62.2-1.6.43-2.57l5.15-22.11c.19-.9.7-1.21,1.64-1.25.94-.04,4.8-.12,7.14-.12s6.2.08,7.14.12c.94.04,1.44.35,1.64,1.25l5.15,22.11c.23.98.43,1.95.43,2.57ZM209.37,145.41h2.81l-1.33-8.97h-.16l-1.33,8.97Z"/><path class="cls-6" d="M222.71,152.19c0,.7-.35,1.09-1.13,1.17-.78.08-2.96.16-4.76.16s-3.55-.04-4.33-.12c-1.29-.12-1.48-.31-1.72-1.83l-.35-2.26h-4.13l-.35,2.26c-.23,1.52-.43,1.72-1.72,1.83-.78.08-2.53.12-4.33.12s-3.98-.08-4.76-.16c-.78-.08-1.13-.47-1.13-1.17,0-.62.2-1.6.43-2.57l5.15-22.11c.19-.9.7-1.21,1.64-1.25.94-.04,4.8-.12,7.14-.12s6.2.08,7.14.12c.94.04,1.44.35,1.64,1.25l5.15,22.11c.23.98.43,1.95.43,2.57ZM206.96,142.87h2.81l-1.33-8.97h-.16l-1.33,8.97Z"/><path class="cls-5" d="M283.38,133.28c0,.78,0,2.22-.04,3-.04.98-.59,1.4-1.56,1.4-1.21,0-3.98-.08-5.58-.08v4.76c0,4.64,0,8.93-.12,12.09-.04.98-.43,1.33-1.25,1.4-.78.08-2.77.16-4.72.16s-3.94-.08-4.72-.16c-.82-.08-1.21-.43-1.25-1.4-.12-3.16-.12-7.45-.12-12.09v-4.76c-1.6,0-4.37.08-5.58.08-.98,0-1.52-.43-1.56-1.4-.04-.78-.04-2.22-.04-3s0-2.22.04-3c.04-.98.59-1.33,1.37-1.4,1.09-.12,7.53-.16,11.86-.16s10.76.08,11.86.16c.78.08,1.33.43,1.36,1.4.04.78.04,2.22.04,3Z"/><path class="cls-6" d="M280.97,130.74c0,.78,0,2.22-.04,3-.04.98-.59,1.4-1.56,1.4-1.21,0-3.98-.08-5.58-.08v4.76c0,4.64,0,8.93-.12,12.09-.04.98-.43,1.33-1.25,1.4-.78.08-2.77.16-4.72.16s-3.94-.08-4.72-.16c-.82-.08-1.21-.43-1.25-1.4-.12-3.16-.12-7.45-.12-12.09v-4.76c-1.6,0-4.37.08-5.58.08-.98,0-1.52-.43-1.56-1.4-.04-.78-.04-2.22-.04-3s0-2.22.04-3c.04-.98.59-1.33,1.37-1.4,1.09-.12,7.53-.16,11.86-.16s10.76.08,11.86.16c.78.08,1.33.43,1.36,1.4.04.78.04,2.22.04,3Z"/><path class="cls-5" d="M335.48,128.85c.82.08,1.21.43,1.25,1.4.12,3.16.12,7.53.12,12.09s0,8.93-.12,12.09c-.04.98-.43,1.33-1.25,1.4-.78.08-2.93.16-4.88.16s-4.1-.08-4.88-.16c-.82-.08-1.21-.43-1.25-1.4-.12-3.16-.12-7.45-.12-12.09s0-8.93.12-12.09c.04-.98.43-1.33,1.25-1.4.78-.08,2.93-.16,4.88-.16s4.1.08,4.88.16Z"/><path class="cls-6" d="M333.06,126.32c.82.08,1.21.43,1.25,1.4.12,3.16.12,7.53.12,12.09s0,8.93-.12,12.09c-.04.98-.43,1.33-1.25,1.4-.78.08-2.93.16-4.88.16s-4.1-.08-4.88-.16c-.82-.08-1.21-.43-1.25-1.4-.12-3.16-.12-7.45-.12-12.09s0-8.93.12-12.09c.04-.98.43-1.33,1.25-1.4.78-.08,2.93-.16,4.88-.16s4.1.08,4.88.16Z"/><path class="cls-5" d="M399.44,128.83c2.85.31,3.78.74,4.37,3.39.43,1.87.82,5.58.82,10.14s-.39,8.27-.82,10.14c-.58,2.65-1.52,3.08-4.37,3.39-2.07.23-6.12.39-8.5.39s-6.44-.16-8.5-.39c-2.85-.31-3.78-.74-4.37-3.39-.43-1.87-.82-5.58-.82-10.14s.39-8.27.82-10.14c.58-2.65,1.52-3.08,4.37-3.39,2.07-.23,6.12-.39,8.5-.39s6.44.16,8.5.39ZM389.96,135.62c-.39.08-.59.19-.62.62-.12,1.56-.12,3.94-.12,6.12s0,4.56.12,6.12c.04.47.23.55.62.62.23.04.66.08.98.08s.74-.04.98-.08c.39-.08.58-.2.62-.62.12-1.56.12-3.94.12-6.12s0-4.56-.12-6.12c-.04-.47-.23-.55-.62-.62-.23-.04-.66-.08-.98-.08s-.78.04-.98.08Z"/><path class="cls-6" d="M397.03,126.3c2.85.31,3.78.74,4.37,3.39.43,1.87.82,5.58.82,10.14s-.39,8.27-.82,10.14c-.58,2.65-1.52,3.08-4.37,3.39-2.07.23-6.12.39-8.5.39s-6.44-.16-8.5-.39c-2.85-.31-3.78-.74-4.37-3.39-.43-1.87-.82-5.58-.82-10.14s.39-8.27.82-10.14c.58-2.65,1.52-3.08,4.37-3.39,2.07-.23,6.12-.39,8.5-.39s6.44.16,8.5.39ZM387.55,133.08c-.39.08-.59.19-.62.62-.12,1.56-.12,3.94-.12,6.12s0,4.56.12,6.12c.04.47.23.55.62.62.23.04.66.08.98.08s.74-.04.98-.08c.39-.08.58-.2.62-.62.12-1.56.12-3.94.12-6.12s0-4.56-.12-6.12c-.04-.47-.23-.55-.62-.62-.23-.04-.66-.08-.98-.08s-.78.04-.98.08Z"/><path class="cls-5" d="M456.08,128.85c.7-.08,2.73-.16,4.1-.16,1.68,0,3.55.08,4.21.16.7.08,1.01.43,1.05,1.4.12,3.16.12,7.49.12,12.13s0,8.93-.12,12.09c-.04.98-.31,1.33-1.01,1.4-.7.08-2.61.16-4.25.16-1.4,0-2.38-.04-3.04-.12-1.91-.19-2.3-.43-3.2-1.91l-5.19-8.42v8.85c0,.98-.27,1.33-1.01,1.4-.7.08-2.73.16-4.1.16-1.68,0-3.55-.08-4.21-.16-.7-.08-1.01-.43-1.05-1.4-.12-3.16-.12-7.45-.12-12.09s0-8.93.12-12.09c.04-.98.43-1.33,1.25-1.4.78-.08,2.89-.16,4.13-.16,1.01,0,2.26.04,2.73.08,1.91.19,2.3.47,3.2,1.95l5.38,8.74v-9.2c0-.98.27-1.33,1.01-1.4Z"/><path class="cls-6" d="M453.67,126.32c.7-.08,2.73-.16,4.1-.16,1.68,0,3.55.08,4.21.16.7.08,1.01.43,1.05,1.4.12,3.16.12,7.49.12,12.13s0,8.93-.12,12.09c-.04.98-.31,1.33-1.01,1.4-.7.08-2.61.16-4.25.16-1.4,0-2.38-.04-3.04-.12-1.91-.19-2.3-.43-3.2-1.91l-5.19-8.42v8.85c0,.98-.27,1.33-1.01,1.4-.7.08-2.73.16-4.1.16-1.68,0-3.55-.08-4.21-.16-.7-.08-1.01-.43-1.05-1.4-.12-3.16-.12-7.45-.12-12.09s0-8.93.12-12.09c.04-.98.43-1.33,1.25-1.4.78-.08,2.89-.16,4.13-.16,1.01,0,2.26.04,2.73.08,1.91.19,2.3.47,3.2,1.95l5.38,8.74v-9.2c0-.98.27-1.33,1.01-1.4Z"/><path class="cls-5" d="M511.08,149.62c1.33,0,1.44-.27,1.48-1.05.04-.82.04-2.38.04-3.51,0-.55-.12-.62-.47-.62-1.09,0-12.56-.04-13.18-.08-.7-.04-1.01-.39-1.05-1.17-.08-1.44-.08-4.45-.08-6.28,0-6.47,1.05-7.72,5.42-8.15,1.6-.16,5.85-.31,7.84-.31s6.04.16,7.64.31c4.37.43,5.62,1.87,5.62,8.15,0,.98-.16,1.13-.98,1.21-.82.08-3.43.08-4.76.08s-4.21,0-5.11-.08c-.74-.08-.78-.12-.82-.78l-.08-1.21c-.04-.86-.35-1.01-1.52-1.01-1.37,0-1.44.27-1.48,1.05-.04.82-.04,2.38-.04,3.12,0,.55.12.62.47.62,1.09,0,12.56.04,13.18.08.7.04,1.01.39,1.05,1.17.08,1.44.08,4.84.08,6.67,0,6.47-.98,7.72-5.34,8.15-1.6.16-5.93.31-7.92.31s-6.05-.16-7.64-.31c-4.37-.43-5.62-1.68-5.62-8.54,0-.98.16-1.13.98-1.21.82-.08,3.43-.08,4.76-.08s4.21,0,5.11.08c.74.08.78.12.82.78l.08,1.6c.04.86.35,1.01,1.52,1.01Z"/><path class="cls-6" d="M508.66,147.08c1.33,0,1.44-.27,1.48-1.05.04-.82.04-2.38.04-3.51,0-.55-.12-.62-.47-.62-1.09,0-12.56-.04-13.18-.08-.7-.04-1.01-.39-1.05-1.17-.08-1.44-.08-4.45-.08-6.28,0-6.47,1.05-7.72,5.42-8.15,1.6-.16,5.85-.31,7.84-.31s6.04.16,7.64.31c4.37.43,5.62,1.87,5.62,8.15,0,.98-.16,1.13-.98,1.21-.82.08-3.43.08-4.76.08s-4.21,0-5.11-.08c-.74-.08-.78-.12-.82-.78l-.08-1.21c-.04-.86-.35-1.01-1.52-1.01-1.37,0-1.44.27-1.48,1.05-.04.82-.04,2.38-.04,3.12,0,.55.12.62.47.62,1.09,0,12.56.04,13.18.08.7.04,1.01.39,1.05,1.17.08,1.44.08,4.84.08,6.67,0,6.47-.98,7.72-5.34,8.15-1.6.16-5.93.31-7.92.31s-6.05-.16-7.64-.31c-4.37-.43-5.62-1.68-5.62-8.54,0-.98.16-1.13.98-1.21s3.43-.08,4.76-.08,4.21,0,5.11.08c.74.08.78.12.82.78l.08,1.6c.04.86.35,1.01,1.52,1.01Z"/><text class="cls-2" transform="translate(543.67 163.4)"><tspan x="0" y="0">UI</tspan></text><text class="cls-4" transform="translate(540.32 160.06)"><tspan x="0" y="0">UI</tspan></text></g></svg>