<?xml version="1.0" encoding="UTF-8"?><svg id="Layer_2" xmlns="http://www.w3.org/2000/svg" xmlns:xlink="http://www.w3.org/1999/xlink" viewBox="0 0 3000 3000"><defs><style>.cls-1{fill:none;}.cls-2{fill:url(#New_Pattern_2);}.cls-3{fill:#df6637;}</style><pattern id="New_Pattern_2" x="0" y="0" width="127.56" height="110.55" patternTransform="translate(-3109.84 -7703.84) scale(.38)" patternUnits="userSpaceOnUse" viewBox="0 0 127.56 110.55"><rect class="cls-1" x="0" y="0" width="127.56" height="110.55"/><path class="cls-3" d="M168,117.96c17.38-6.5,36.25-5.84,53.13,1.86,27.6,12.58,39.82,45.28,27.24,72.88-4.81,10.55-13.45,18.6-24.34,22.67-10.89,4.07-22.69,3.66-33.24-1.15-8.3-3.78-14.64-10.59-17.85-19.16-3.2-8.57-2.88-17.87.9-26.17,6.14-13.46,22.08-19.42,35.54-13.28,5.08,2.32,8.96,6.48,10.92,11.71,1.96,5.23,1.76,10.91-.56,16-1.79,3.93-5.01,6.93-9.06,8.45-4.05,1.51-8.45,1.36-12.38-.43-6.22-2.83-8.97-10.2-6.14-16.43,1.04-2.27,2.9-4.01,5.25-4.89,2.35-.87,4.89-.78,7.17.25,1.69.77,2.98,2.15,3.63,3.89.65,1.74.58,3.62-.19,5.31l-.16.36,4.99,2.27.16-.36c1.38-3.02,1.5-6.4.33-9.51-1.16-3.11-3.47-5.58-6.49-6.96-3.61-1.65-7.65-1.79-11.36-.4-3.72,1.39-6.67,4.14-8.32,7.75-4.09,8.97-.12,19.6,8.85,23.69,5.27,2.4,11.16,2.61,16.58.58,5.42-2.03,9.73-6.04,12.13-11.31,2.93-6.42,3.18-13.59.71-20.19-2.47-6.61-7.36-11.86-13.78-14.78-7.84-3.58-16.62-3.88-24.71-.85-8.1,3.03-14.52,9.01-18.1,16.85-9.08,19.92-.26,43.52,19.66,52.6,6.42,2.92,13.22,4.41,20.22,4.41h.01c19.17,0,36.68-11.24,44.61-28.64,6.7-14.7,7.28-31.14,1.62-46.28-5.66-15.14-16.87-27.17-31.58-33.87-18.21-8.3-38.57-9.02-57.32-2.01-18.75,7.01-33.65,20.9-41.96,39.12l-.16.36,4.99,2.27.16-.36c7.7-16.88,21.51-29.75,38.88-36.25Z"/><path class="cls-3" d="M40.44,117.96c17.38-6.5,36.25-5.84,53.13,1.86,27.6,12.58,39.82,45.28,27.24,72.88-4.81,10.55-13.45,18.6-24.34,22.67-10.89,4.07-22.69,3.66-33.24-1.15-8.3-3.78-14.64-10.59-17.85-19.16-3.2-8.57-2.88-17.87.9-26.17,6.14-13.46,22.08-19.42,35.54-13.28,5.08,2.32,8.96,6.48,10.92,11.71,1.96,5.23,1.76,10.91-.56,16-1.79,3.93-5.01,6.93-9.06,8.45-4.05,1.51-8.45,1.36-12.38-.43-6.22-2.83-8.97-10.2-6.14-16.43,1.04-2.27,2.9-4.01,5.25-4.89,2.35-.87,4.89-.78,7.17.25,1.69.77,2.98,2.15,3.63,3.89.65,1.74.58,3.62-.19,5.31l-.16.36,4.99,2.27.16-.36c1.38-3.02,1.5-6.4.33-9.51-1.16-3.11-3.47-5.58-6.49-6.96-3.61-1.65-7.65-1.79-11.36-.4-3.72,1.39-6.67,4.14-8.32,7.75-4.09,8.97-.12,19.6,8.85,23.69,5.27,2.4,11.16,2.61,16.58.58,5.42-2.03,9.73-6.04,12.13-11.31,2.93-6.42,3.18-13.59.71-20.19-2.47-6.61-7.36-11.86-13.78-14.78-7.84-3.58-16.62-3.88-24.71-.85-8.1,3.03-14.52,9.01-18.1,16.85-9.08,19.92-.26,43.52,19.66,52.6,6.42,2.92,13.22,4.41,20.22,4.41h.01c19.17,0,36.68-11.24,44.61-28.64,6.7-14.7,7.28-31.14,1.62-46.28-5.66-15.14-16.87-27.17-31.58-33.87-18.21-8.3-38.57-9.02-57.32-2.01-18.75,7.01-33.65,20.9-41.96,39.12l-.16.36,4.99,2.27.16-.36c7.7-16.88,21.51-29.75,38.88-36.25Z"/><path class="cls-3" d="M-87.12,117.96c17.38-6.5,36.25-5.84,53.13,1.86,27.6,12.58,39.82,45.28,27.24,72.88-4.81,10.55-13.45,18.6-24.34,22.67-10.89,4.07-22.69,3.66-33.24-1.15-8.3-3.78-14.64-10.59-17.85-19.16-3.2-8.57-2.88-17.87.9-26.17,6.14-13.46,22.08-19.42,35.54-13.28,5.08,2.32,8.96,6.48,10.92,11.71,1.96,5.23,1.76,10.91-.56,16-1.79,3.93-5.01,6.93-9.06,8.45-4.05,1.51-8.45,1.36-12.38-.43-6.22-2.83-8.97-10.2-6.14-16.43,1.04-2.27,2.9-4.01,5.25-4.89,2.35-.87,4.89-.78,7.17.25,1.69.77,2.98,2.15,3.63,3.89.65,1.74.58,3.62-.19,5.31l-.16.36,4.99,2.27.16-.36c1.38-3.02,1.5-6.4.33-9.51-1.16-3.11-3.47-5.58-6.49-6.96-3.61-1.65-7.65-1.79-11.36-.4-3.72,1.39-6.67,4.14-8.32,7.75-4.09,8.97-.12,19.6,8.85,23.69,5.27,2.4,11.16,2.61,16.58.58,5.42-2.03,9.73-6.04,12.13-11.31,2.93-6.42,3.18-13.59.71-20.19-2.47-6.61-7.36-11.86-13.78-14.78-7.84-3.58-16.62-3.88-24.71-.85-8.1,3.03-14.52,9.01-18.1,16.85-9.08,19.92-.26,43.52,19.66,52.6,6.42,2.92,13.22,4.41,20.22,4.41h.01c19.17,0,36.68-11.24,44.61-28.64,6.7-14.7,7.28-31.14,1.62-46.28-5.66-15.14-16.87-27.17-31.58-33.87-18.21-8.3-38.57-9.02-57.32-2.01-18.75,7.01-33.65,20.9-41.96,39.12l-.16.36,4.99,2.27.16-.36c7.7-16.88,21.51-29.75,38.88-36.25Z"/><path class="cls-3" d="M168,7.4c17.38-6.5,36.25-5.84,53.13,1.86,27.6,12.58,39.82,45.28,27.24,72.88-4.81,10.55-13.45,18.6-24.34,22.67-10.89,4.07-22.69,3.66-33.24-1.15-8.3-3.78-14.64-10.59-17.85-19.16-3.2-8.57-2.88-17.87.9-26.17,6.14-13.46,22.08-19.42,35.54-13.28,5.08,2.32,8.96,6.48,10.92,11.71,1.96,5.23,1.76,10.91-.56,16-1.79,3.93-5.01,6.93-9.06,8.45-4.05,1.51-8.45,1.36-12.38-.43-6.22-2.83-8.97-10.2-6.14-16.43,1.04-2.27,2.9-4.01,5.25-4.89,2.35-.87,4.89-.78,7.17.25,1.69.77,2.98,2.15,3.63,3.89.65,1.74.58,3.62-.19,5.31l-.16.36,4.99,2.27.16-.36c1.38-3.02,1.5-6.4.33-9.51-1.16-3.11-3.47-5.58-6.49-6.96-3.61-1.65-7.65-1.79-11.36-.4-3.72,1.39-6.67,4.14-8.32,7.75-4.09,8.97-.12,19.6,8.85,23.69,5.27,2.4,11.16,2.61,16.58.58,5.42-2.03,9.73-6.04,12.13-11.31,2.93-6.42,3.18-13.59.71-20.19-2.47-6.61-7.36-11.86-13.78-14.78-7.84-3.58-16.62-3.88-24.71-.85-8.1,3.03-14.52,9.01-18.1,16.85-9.08,19.92-.26,43.52,19.66,52.6,6.42,2.92,13.22,4.41,20.22,4.41h.01c19.17,0,36.68-11.24,44.61-28.64,6.7-14.7,7.28-31.14,1.62-46.28-5.66-15.14-16.87-27.17-31.58-33.87-18.21-8.3-38.57-9.02-57.32-2.01-18.75,7.01-33.65,20.9-41.96,39.12l-.16.36,4.99,2.27.16-.36c7.7-16.88,21.51-29.75,38.88-36.25Z"/><path class="cls-3" d="M40.44,7.4c17.38-6.5,36.25-5.84,53.13,1.86,27.6,12.58,39.82,45.28,27.24,72.88-4.81,10.55-13.45,18.6-24.34,22.67-10.89,4.07-22.69,3.66-33.24-1.15-8.3-3.78-14.64-10.59-17.85-19.16-3.2-8.57-2.88-17.87.9-26.17,6.14-13.46,22.08-19.42,35.54-13.28,5.08,2.32,8.96,6.48,10.92,11.71,1.96,5.23,1.76,10.91-.56,16-1.79,3.93-5.01,6.93-9.06,8.45-4.05,1.51-8.45,1.36-12.38-.43-6.22-2.83-8.97-10.2-6.14-16.43,1.04-2.27,2.9-4.01,5.25-4.89,2.35-.87,4.89-.78,7.17.25,1.69.77,2.98,2.15,3.63,3.89.65,1.74.58,3.62-.19,5.31l-.16.36,4.99,2.27.16-.36c1.38-3.02,1.5-6.4.33-9.51-1.16-3.11-3.47-5.58-6.49-6.96-3.61-1.65-7.65-1.79-11.36-.4-3.72,1.39-6.67,4.14-8.32,7.75-4.09,8.97-.12,19.6,8.85,23.69,5.27,2.4,11.16,2.61,16.58.58,5.42-2.03,9.73-6.04,12.13-11.31,2.93-6.42,3.18-13.59.71-20.19-2.47-6.61-7.36-11.86-13.78-14.78-7.84-3.58-16.62-3.88-24.71-.85-8.1,3.03-14.52,9.01-18.1,16.85-9.08,19.92-.26,43.52,19.66,52.6,6.42,2.92,13.22,4.41,20.22,4.41h.01c19.17,0,36.68-11.24,44.61-28.64,6.7-14.7,7.28-31.14,1.62-46.28-5.66-15.14-16.87-27.17-31.58-33.87-18.21-8.3-38.57-9.02-57.32-2.01C19.77,9.27,4.87,23.17-3.44,41.38l-.16.36,4.99,2.27.16-.36C9.25,26.77,23.06,13.9,40.44,7.4Z"/><path class="cls-3" d="M-87.12,7.4c17.38-6.5,36.25-5.84,53.13,1.86C-6.39,21.85,5.83,54.55-6.75,82.15c-4.81,10.55-13.45,18.6-24.34,22.67-10.89,4.07-22.69,3.66-33.24-1.15-8.3-3.78-14.64-10.59-17.85-19.16-3.2-8.57-2.88-17.87.9-26.17,6.14-13.46,22.08-19.42,35.54-13.28,5.08,2.32,8.96,6.48,10.92,11.71,1.96,5.23,1.76,10.91-.56,16-1.79,3.93-5.01,6.93-9.06,8.45-4.05,1.51-8.45,1.36-12.38-.43-6.22-2.83-8.97-10.2-6.14-16.43,1.04-2.27,2.9-4.01,5.25-4.89,2.35-.87,4.89-.78,7.17.25,1.69.77,2.98,2.15,3.63,3.89.65,1.74.58,3.62-.19,5.31l-.16.36,4.99,2.27.16-.36c1.38-3.02,1.5-6.4.33-9.51-1.16-3.11-3.47-5.58-6.49-6.96-3.61-1.65-7.65-1.79-11.36-.4-3.72,1.39-6.67,4.14-8.32,7.75-4.09,8.97-.12,19.6,8.85,23.69,5.27,2.4,11.16,2.61,16.58.58,5.42-2.03,9.73-6.04,12.13-11.31,2.93-6.42,3.18-13.59.71-20.19-2.47-6.61-7.36-11.86-13.78-14.78-7.84-3.58-16.62-3.88-24.71-.85-8.1,3.03-14.52,9.01-18.1,16.85-9.08,19.92-.26,43.52,19.66,52.6,6.42,2.92,13.22,4.41,20.22,4.41h.01c19.17,0,36.68-11.24,44.61-28.64,6.7-14.7,7.28-31.14,1.62-46.28C-5.8,23.01-17.01,10.98-31.72,4.27c-18.21-8.3-38.57-9.02-57.32-2.01-18.75,7.01-33.65,20.9-41.96,39.12l-.16.36,4.99,2.27.16-.36c7.7-16.88,21.51-29.75,38.88-36.25Z"/><path class="cls-3" d="M168-103.15c17.38-6.5,36.25-5.84,53.13,1.86,27.6,12.58,39.82,45.28,27.24,72.88-4.81,10.55-13.45,18.6-24.34,22.67-10.89,4.07-22.69,3.66-33.24-1.15-8.3-3.78-14.64-10.59-17.85-19.16-3.2-8.57-2.88-17.87.9-26.17,6.14-13.46,22.08-19.42,35.54-13.28,5.08,2.32,8.96,6.48,10.92,11.71,1.96,5.23,1.76,10.91-.56,16-1.79,3.93-5.01,6.93-9.06,8.45-4.05,1.51-8.45,1.36-12.38-.43-6.22-2.83-8.97-10.2-6.14-16.43,1.04-2.27,2.9-4.01,5.25-4.89,2.35-.87,4.89-.78,7.17.25,1.69.77,2.98,2.15,3.63,3.89.65,1.74.58,3.62-.19,5.31l-.16.36,4.99,2.27.16-.36c1.38-3.02,1.5-6.4.33-9.51-1.16-3.11-3.47-5.58-6.49-6.96-3.61-1.65-7.65-1.79-11.36-.4-3.72,1.39-6.67,4.14-8.32,7.75-4.09,8.97-.12,19.6,8.85,23.69,5.27,2.4,11.16,2.61,16.58.58,5.42-2.03,9.73-6.04,12.13-11.31,2.93-6.42,3.18-13.59.71-20.19-2.47-6.61-7.36-11.86-13.78-14.78-7.84-3.58-16.62-3.88-24.71-.85-8.1,3.03-14.52,9.01-18.1,16.85-9.08,19.92-.26,43.52,19.66,52.6,6.42,2.92,13.22,4.41,20.22,4.41h.01c19.17,0,36.68-11.24,44.61-28.64,6.7-14.7,7.28-31.14,1.62-46.28-5.66-15.14-16.87-27.17-31.58-33.87-18.21-8.3-38.57-9.02-57.32-2.01-18.75,7.01-33.65,20.9-41.96,39.12l-.16.36,4.99,2.27.16-.36c7.7-16.88,21.51-29.75,38.88-36.25Z"/><path class="cls-3" d="M40.44-103.15c17.38-6.5,36.25-5.84,53.13,1.86,27.6,12.58,39.82,45.28,27.24,72.88-4.81,10.55-13.45,18.6-24.34,22.67-10.89,4.07-22.69,3.66-33.24-1.15-8.3-3.78-14.64-10.59-17.85-19.16-3.2-8.57-2.88-17.87.9-26.17,6.14-13.46,22.08-19.42,35.54-13.28,5.08,2.32,8.96,6.48,10.92,11.71,1.96,5.23,1.76,10.91-.56,16-1.79,3.93-5.01,6.93-9.06,8.45-4.05,1.51-8.45,1.36-12.38-.43-6.22-2.83-8.97-10.2-6.14-16.43,1.04-2.27,2.9-4.01,5.25-4.89,2.35-.87,4.89-.78,7.17.25,1.69.77,2.98,2.15,3.63,3.89.65,1.74.58,3.62-.19,5.31l-.16.36,4.99,2.27.16-.36c1.38-3.02,1.5-6.4.33-9.51-1.16-3.11-3.47-5.58-6.49-6.96-3.61-1.65-7.65-1.79-11.36-.4-3.72,1.39-6.67,4.14-8.32,7.75-4.09,8.97-.12,19.6,8.85,23.69,5.27,2.4,11.16,2.61,16.58.58,5.42-2.03,9.73-6.04,12.13-11.31,2.93-6.42,3.18-13.59.71-20.19-2.47-6.61-7.36-11.86-13.78-14.78-7.84-3.58-16.62-3.88-24.71-.85-8.1,3.03-14.52,9.01-18.1,16.85-9.08,19.92-.26,43.52,19.66,52.6,6.42,2.92,13.22,4.41,20.22,4.41h.01c19.17,0,36.68-11.24,44.61-28.64,6.7-14.7,7.28-31.14,1.62-46.28-5.66-15.14-16.87-27.17-31.58-33.87-18.21-8.3-38.57-9.02-57.32-2.01-18.75,7.01-33.65,20.9-41.96,39.12l-.16.36,4.99,2.27.16-.36c7.7-16.88,21.51-29.75,38.88-36.25Z"/><path class="cls-3" d="M-87.12-103.15c17.38-6.5,36.25-5.84,53.13,1.86C-6.39-88.7,5.83-56.01-6.75-28.4c-4.81,10.55-13.45,18.6-24.34,22.67-10.89,4.07-22.69,3.66-33.24-1.15-8.3-3.78-14.64-10.59-17.85-19.16-3.2-8.57-2.88-17.87.9-26.17,6.14-13.46,22.08-19.42,35.54-13.28,5.08,2.32,8.96,6.48,10.92,11.71,1.96,5.23,1.76,10.91-.56,16-1.79,3.93-5.01,6.93-9.06,8.45-4.05,1.51-8.45,1.36-12.38-.43-6.22-2.83-8.97-10.2-6.14-16.43,1.04-2.27,2.9-4.01,5.25-4.89,2.35-.87,4.89-.78,7.17.25,1.69.77,2.98,2.15,3.63,3.89.65,1.74.58,3.62-.19,5.31l-.16.36,4.99,2.27.16-.36c1.38-3.02,1.5-6.4.33-9.51-1.16-3.11-3.47-5.58-6.49-6.96-3.61-1.65-7.65-1.79-11.36-.4-3.72,1.39-6.67,4.14-8.32,7.75-4.09,8.97-.12,19.6,8.85,23.69,5.27,2.4,11.16,2.61,16.58.58,5.42-2.03,9.73-6.04,12.13-11.31,2.93-6.42,3.18-13.59.71-20.19-2.47-6.61-7.36-11.86-13.78-14.78-7.84-3.58-16.62-3.88-24.71-.85-8.1,3.03-14.52,9.01-18.1,16.85-9.08,19.92-.26,43.52,19.66,52.6,6.42,2.92,13.22,4.41,20.22,4.41h.01c19.17,0,36.68-11.24,44.61-28.64,6.7-14.7,7.28-31.14,1.62-46.28-5.66-15.14-16.87-27.17-31.58-33.87-18.21-8.3-38.57-9.02-57.32-2.01-18.75,7.01-33.65,20.9-41.96,39.12l-.16.36,4.99,2.27.16-.36c7.7-16.88,21.51-29.75,38.88-36.25Z"/></pattern></defs><g id="Layer_2-2"><rect class="cls-2" width="3000" height="3000"/></g></svg>