<?xml version="1.0" encoding="UTF-8"?><svg id="Layer_2" xmlns="http://www.w3.org/2000/svg" viewBox="0 0 67.92 93.72"><defs><style>.cls-1{fill:#221f20;}</style></defs><g id="Layer_1-2"><path class="cls-1" d="M38.74,11.43c-.07-.09-.17-.15-.25-.23l-2.18-2.54C32.44,3.66,27.82.79,22.58.14,13.91-.93,6.88,4.5,5.56,5.6c-.01.01-.03.02-.04.03C-.18,10.26-1.7,17.54,2.07,22.22c1.42,1.75,3.42,2.89,5.78,3.31.6.1,1.19.16,1.78.16,4.59,0,8.88-3.07,10.41-7.69.6-1.8,1.49-3.03,2.73-3.75,2.38-1.39,5.98-.84,8.39-.1C24.01,22.7,4.28,47.6,4.28,61.9c0,17.54,14.27,31.82,31.82,31.82s31.82-14.27,31.82-31.82c0-16.47-26.19-47.04-29.18-50.47ZM19.24,8.19c-2.74,1.6-4.7,4.15-5.85,7.59-.65,1.95-2.52,3.17-4.33,2.85-.69-.12-1.22-.4-1.55-.82-1.1-1.37-.38-4.48,2.43-6.75l.06-.05s.02-.02.03-.03c.23-.19,5.65-4.63,11.67-3.9-.83.27-1.66.63-2.46,1.1ZM53.92,70.85c-2.4,2.45-7.71,1.74-7.49-2.19.19-3.27,1.14-6.93.52-11.13-.23-1.59.02-2.95.49-4.09l.07-.1c1.49-1.22,4.04-1.05,5.84.28,1.76,1.43,2.65,4.04,2.59,6.22-.15,2.19-1.71,4.92-1.69,7.44-.2,1.23.43,2.57-.33,3.57ZM20.99,48.82c-1.5,1.53-4.13,1.83-5.85.88,2.1-4.18,4.86-8.67,7.81-13.04.05.39.07.78.06,1.16-.15,2.19-1.71,4.92-1.69,7.44-.2,1.23.43,2.57-.33,3.57ZM14.45,66.41c-1.11.48-1.48.69-2.04,1.33-.13.13-.23.29-.32.45-.53-2.01-.81-4.12-.81-6.29s.63-4.59,1.69-7.35c6.36-.9,9.76,8.64,1.79,11.73l-.32.13ZM36.61,19.77c2.13,2.59,4.62,5.76,7.2,9.23-.49.31-1.03.6-1.65.84l-.32.13c-1.11.48-1.48.69-2.04,1.33-1.1,1.12-.53,3.61-2.36,3.95-6.68-.53-9.14-7.24-3.85-12.49,1.02-1.29,2.03-2.26,3.01-2.98ZM24.01,53.85c1.6-2.82,6.52-5.28,3.91-8.89-.64-1.23-.99-2.87-.01-4.02,1.52-1.58,4.05-1.74,5.98-1.15,2.89.69,3.48,4.35,3.74,7.16.07,4.07,3.45,6.78,3.02,10.73l-.06.42c-.65,3.74-3.83,7.31-7.48,7.91-5.62,1.06-13-6.98-9.11-12.17ZM39.14,81.23c6.02-7.61,11.86-4.72,13.01-.42-4.28,3.63-9.8,5.85-15.82,5.9.16-1.8,1.04-3.72,2.82-5.48ZM47.1,48.73c-3,.81-2.44-4.3-2.86-6.43-.23-2.35,1.41-4.3,1.86-6.52.12-.85.31-1.87.61-2.79,2.85,4.02,5.65,8.27,8.01,12.37-2.32,1.63-5.01,2.79-7.62,3.36ZM17.63,78.45c.38-.89.77-1.77.96-2.71.39-2.83,1.57-7.53,5.05-4.3,1.87,2.17,4.53-.51,6.95.33,2.38,1.07,2.88,4.34,2.28,6.65l-.08.27c-1.04,2.58-2.99,4.76-5.34,6.46-3.8-1.42-7.16-3.74-9.82-6.71ZM54.03,79.03c-.42-1.66-.23-3.37.88-4.84,1.6-2.82,6.52-5.28,3.91-8.89-.64-1.23-.99-2.87-.01-4.02.55-.57,1.23-.94,1.96-1.18.09.63.14,1.24.14,1.8,0,6.64-2.62,12.67-6.88,17.13Z"/></g></svg>