<?xml version="1.0" encoding="UTF-8"?><svg id="Layer_2" xmlns="http://www.w3.org/2000/svg" viewBox="0 0 110.42 110.42"><defs><style>.cls-1{fill:#221f20;}</style></defs><g id="Layer_1-2"><path class="cls-1" d="M55.21,0C24.77,0,0,24.77,0,55.21s24.77,55.21,55.21,55.21,55.21-24.77,55.21-55.21S85.66,0,55.21,0ZM55.21,103.42c-26.58,0-48.21-21.63-48.21-48.21S28.63,7,55.21,7s48.21,21.63,48.21,48.21-21.63,48.21-48.21,48.21Z"/><path class="cls-1" d="M32.07,76.78c-.3,9.87-4.28,10.8-4.28,10.8,0,0,12.05,4.76,12.36-7.48.31-12.24,7.11-10.24,7.11-10.24-8.51-5.25-14.89-2.94-15.18,6.93Z"/><path class="cls-1" d="M39.23,59.93c-2.31-9.73-8.45-12.6-15.63-5.84s-10.67,4.61-10.67,4.61c0,0,5.16,11.88,14.03,3.45s12.27-2.22,12.27-2.22Z"/><path class="cls-1" d="M30.33,40.15c12.24.31,10.24,7.11,10.24,7.11,5.25-8.51,2.94-14.89-6.93-15.18-9.87-.3-10.8-4.28-10.8-4.28,0,0-4.76,12.05,7.48,12.36Z"/><path class="cls-1" d="M50.49,39.23c9.73-2.31,12.6-8.45,5.84-15.63-6.77-7.19-4.61-10.66-4.61-10.66,0,0-11.88,5.16-3.45,14.03,8.43,8.87,2.22,12.27,2.22,12.27Z"/><path class="cls-1" d="M78.35,33.65c.3-9.87,4.28-10.8,4.28-10.8,0,0-12.05-4.76-12.36,7.48-.31,12.24-7.11,10.24-7.11,10.24,8.51,5.25,14.89,2.94,15.18-6.93Z"/><path class="cls-1" d="M71.19,50.49c2.31,9.73,8.45,12.6,15.63,5.84s10.67-4.61,10.67-4.61c0,0-5.16-11.88-14.03-3.45s-12.27,2.22-12.27,2.22Z"/><path class="cls-1" d="M80.09,70.28c-12.24-.31-10.24-7.11-10.24-7.11-5.25,8.51-2.94,14.89,6.93,15.18,9.87.3,10.8,4.28,10.8,4.28,0,0,4.76-12.05-7.48-12.36Z"/><path class="cls-1" d="M59.93,71.19c-9.73,2.31-12.6,8.45-5.84,15.63,6.77,7.19,4.61,10.66,4.61,10.66,0,0,11.88-5.16,3.45-14.03-8.43-8.87-2.22-12.27-2.22-12.27Z"/><circle class="cls-1" cx="55.21" cy="55.21" r="9.52"/></g></svg>