<?xml version="1.0" encoding="UTF-8"?><svg id="Layer_2" xmlns="http://www.w3.org/2000/svg" viewBox="0 0 202.75 163.96"><defs><style>.cls-1{fill:#221f20;}</style></defs><g id="Layer_1-2"><path class="cls-1" d="M123.29.72c-29.47-3.34-58.48,5-81.69,23.47C18.4,42.67,3.78,69.08.44,98.55l-.44,3.89h3.91c30.86.08,59.5,14.21,78.58,38.78,9.76,12.58,23.85,20.49,39.67,22.28,2.75.31,5.49.46,8.2.46,36.27,0,67.64-27.31,71.82-64.19,2.69-23.76-4.03-47.16-18.93-65.86C168.35,15.2,147.05,3.41,123.29.72ZM195.22,98.98c-4.06,35.79-36.48,61.6-72.27,57.56-13.93-1.58-26.33-8.55-34.93-19.62-19.58-25.23-48.61-40.17-80.12-41.39,3.91-26.08,17.33-49.35,38.07-65.86C67.7,12.36,94.89,4.54,122.5,7.68c21.91,2.48,41.53,13.35,55.27,30.59s19.93,38.81,17.45,60.71Z"/><path class="cls-1" d="M157.34,50.56c0-18.5-14.45-33.89-32.9-35.05l-3.72-.23v41.58c-6.63-8-16.45-12.68-27-12.68-18.5,0-33.89,14.45-35.05,32.9l-.23,3.72h41.59c-8,6.63-12.67,16.45-12.67,27,0,18.5,14.45,33.89,32.9,35.05l3.72.23v-41.57c6.63,7.99,16.45,12.66,26.99,12.66,18.5,0,33.89-14.45,35.05-32.9l.23-3.72h-41.57c7.99-6.64,12.66-16.46,12.66-26.99ZM127.72,22.98c12.95,2.57,22.62,14.04,22.62,27.58,0,9.19-4.44,17.71-11.93,22.99h-4c-1.36-2.93-3.74-5.26-6.69-6.56V22.98ZM93.72,51.18c9.21,0,17.73,4.45,23,11.95v3.97c-2.93,1.36-5.27,3.75-6.57,6.7h-44.01c2.57-12.95,14.04-22.62,27.58-22.62ZM116.97,135.38c-12.95-2.57-22.62-14.04-22.62-27.58,0-9.21,4.45-17.74,11.95-23h3.96c1.36,2.94,3.75,5.27,6.71,6.57v44.01ZM123.71,85.35l-1.29.28-1.29-.25c-2.47-.48-4.42-2.38-4.96-4.84l-.28-1.29.25-1.29c.48-2.47,2.38-4.42,4.84-4.96l1.29-.28,1.29.25c2.47.48,4.41,2.38,4.96,4.83l.28,1.29-.25,1.29c-.48,2.47-2.37,4.42-4.83,4.96ZM150.96,107.17c-9.2,0-17.72-4.44-22.99-11.93v-3.99c2.93-1.36,5.26-3.75,6.56-6.7h44.01c-2.57,12.95-14.04,22.62-27.58,22.62Z"/></g></svg>