<?xml version="1.0" encoding="UTF-8"?><svg id="Layer_2" xmlns="http://www.w3.org/2000/svg" viewBox="0 0 110.42 110.42"><defs><style>.cls-1{fill:#221f20;}</style></defs><g id="Layer_1-2"><path class="cls-1" d="M55.21,0C24.77,0,0,24.77,0,55.21s24.77,55.21,55.21,55.21,55.21-24.77,55.21-55.21S85.66,0,55.21,0ZM55.21,103.42c-26.58,0-48.21-21.63-48.21-48.21S28.63,7,55.21,7s48.21,21.63,48.21,48.21-21.63,48.21-48.21,48.21Z"/><path class="cls-1" d="M29.6,64.24s6.49,2.84-1.13,12.41c-7.62,9.58,4.66,13.67,4.66,13.67,0,0-2.46-3.28,3.65-11.03,6.11-7.75,2.71-13.61-7.18-15.06Z"/><path class="cls-1" d="M51.91,64.24s6.49,2.84-1.13,12.41c-7.62,9.58,4.66,13.67,4.66,13.67,0,0-2.46-3.28,3.66-11.03,6.11-7.75,2.71-13.61-7.18-15.06Z"/><path class="cls-1" d="M74.21,64.24s6.49,2.84-1.13,12.41c-7.62,9.58,4.66,13.67,4.66,13.67,0,0-2.46-3.28,3.65-11.03,6.11-7.75,2.71-13.61-7.18-15.06Z"/><path class="cls-1" d="M74.85,33.91c4.42,0,8-3.58,8-8s-3.58-8-8-8-8,3.58-8,8c0,.83.13,1.64.37,2.4,1.02,3.25,4.05,5.6,7.63,5.6Z"/><path class="cls-1" d="M41.56,29.91c2.21,0,4-1.79,4-4s-1.79-4-4-4-4,1.79-4,4c0,.42.06.82.18,1.2.51,1.62,2.03,2.8,3.82,2.8Z"/><path class="cls-1" d="M70.44,35.64c-.9,0-1.77.09-2.63.24-.06-6.29-5.19-11.39-11.49-11.39-5.64,0-10.33,4.08-11.3,9.44-2.22-1.18-4.74-1.85-7.42-1.85-8.13,0-14.85,6.13-15.79,14.01-.51-.07-1.06-.12-1.64-.12-1.93,0-3.5,1.57-3.5,3.5s1.57,3.5,3.5,3.5c1.44,0,2,.47,3.42,1.83,1.66,1.6,3.94,3.78,8.26,3.78s6.6-2.19,8.27-3.78c1.42-1.36,1.98-1.83,3.42-1.83s2,.47,3.42,1.83c1.66,1.6,3.94,3.78,8.27,3.78s6.6-2.19,8.27-3.78c1.42-1.36,1.98-1.83,3.42-1.83s2,.47,3.42,1.83c1.66,1.59,3.94,3.78,8.27,3.78,2.88,0,4.85-.97,6.33-2.09l.09.03s.04-.1.06-.14c.68-.53,1.27-1.08,1.79-1.57,1.42-1.36,1.98-1.83,3.42-1.83,1.93,0,3.5-1.57,3.5-3.5s-1.57-3.5-3.5-3.5-3.37.43-4.59,1.03c-1.96-6.56-8.05-11.36-15.24-11.36ZM43.52,45.97c-4.33,0-6.6,2.19-8.27,3.78-1.42,1.36-1.98,1.83-3.42,1.83-1.23,0-1.82-.35-2.84-1.29-.2-.75-.32-1.52-.32-2.3,0-4.91,4-8.91,8.91-8.91,4.34,0,7.97,3.13,8.75,7.25-.83-.22-1.76-.35-2.82-.35ZM54.11,51.72c-1.31,0-2.37-1.06-2.37-2.37s1.06-2.37,2.37-2.37,2.37,1.06,2.37,2.37-1.06,2.37-2.37,2.37ZM56.31,40.48c-1.98,0-3.7-1.27-4.29-3.15h0c-.14-.43-.21-.89-.21-1.35,0-2.48,2.02-4.5,4.5-4.5s4.5,2.02,4.5,4.5-2.02,4.5-4.5,4.5ZM78.58,51.58c-1.44,0-2-.47-3.42-1.83-1.66-1.59-3.94-3.78-8.27-3.78-1.55,0-2.82.29-3.91.72,1.59-2.43,4.34-4.05,7.46-4.05,4.9,0,8.89,3.98,8.91,8.87-.23.04-.48.07-.77.07Z"/></g></svg>