<?xml version="1.0" encoding="UTF-8"?><svg id="Layer_2" xmlns="http://www.w3.org/2000/svg" viewBox="0 0 71.46 119.79"><defs><style>.cls-1{fill:#221f20;}</style></defs><g id="Layer_1-2"><path class="cls-1" d="M71.31,32.49c.38-1.24.04-2.58-.87-3.5-.92-.92-2.26-1.25-3.5-.87-13.02,3.98-22.24,11.97-27.52,23.75v-7.95c0-.22-.03-.42-.06-.63,7.06-13.75,6.96-27.69-.35-41.44-.61-1.14-1.8-1.86-3.09-1.86s-2.48.71-3.09,1.86c-7.3,13.75-7.41,27.69-.35,41.44-.04.2-.06.41-.06.63v8.78c-5.21-12.24-14.57-20.51-27.89-24.58-1.23-.38-2.58-.04-3.5.87-.92.92-1.25,2.26-.87,3.5,2.65,8.66,7.08,15.64,13.21,20.9-2.72-1.44-5.66-2.67-8.84-3.64-1.23-.38-2.58-.04-3.5.87s-1.25,2.26-.87,3.5c2.65,8.66,7.08,15.64,13.21,20.9-2.72-1.44-5.66-2.67-8.83-3.64-1.23-.38-2.58-.04-3.5.87-.92.92-1.25,2.26-.87,3.5,4.63,15.14,14.66,25.16,29.79,29.79.34.1.68.15,1.02.15.16,0,.32-.02.48-.05.36.59.97,2.03.97,5v5.63c0,1.93,1.57,3.5,3.5,3.5s3.5-1.57,3.5-3.5v-5.63c0-2.91.59-4.36.95-4.97.04,0,.08.01.12.01.34,0,.69-.05,1.02-.15,15.14-4.63,25.16-14.66,29.79-29.79.38-1.24.04-2.58-.87-3.5s-2.26-1.25-3.5-.87c-3.18.97-6.11,2.2-8.84,3.64,6.13-5.26,10.56-12.24,13.21-20.9.38-1.24.04-2.58-.87-3.5-.92-.92-2.26-1.25-3.5-.87-3.18.97-6.11,2.2-8.84,3.64,6.13-5.26,10.56-12.24,13.21-20.9ZM61.66,37.77c-3.39,6.55-8.32,11.48-14.87,14.87,3.39-6.55,8.32-11.48,14.87-14.87ZM35.92,12.41c2.24,7.03,2.24,14,0,21.03-2.24-7.03-2.24-14,0-21.03ZM9.8,37.77c6.55,3.39,11.48,8.32,14.87,14.87-6.55-3.39-11.48-8.32-14.87-14.87ZM29.95,62.29c.34.1.68.15,1.02.15.11,0,.21-.02.32-.03.28.37,1.13,1.75,1.13,5.23v6.7c-2.68-6.29-6.46-11.53-11.31-15.69,2.72,1.44,5.66,2.67,8.83,3.64ZM9.8,59.4c6.55,3.39,11.48,8.32,14.87,14.87-6.55-3.39-11.48-8.32-14.87-14.87ZM29.95,83.92c.16.05.32.08.48.11.22.3.48.57.8.79.19.21,1.19,1.52,1.19,5.31v5.85c-2.68-6.29-6.46-11.53-11.31-15.69,2.72,1.44,5.66,2.67,8.84,3.64ZM9.8,81.04c6.55,3.39,11.48,8.32,14.87,14.87-6.55-3.39-11.48-8.32-14.87-14.87ZM46.79,95.91c3.39-6.55,8.32-11.48,14.87-14.87-3.39,6.55-8.32,11.48-14.87,14.87ZM39.42,95.14v-5.01c0-3.8,1-5.1,1.19-5.31.36-.25.65-.55.89-.89,0,0,.02,0,.02,0,3.18-.97,6.11-2.2,8.84-3.64-4.63,3.97-8.28,8.94-10.93,14.86ZM46.79,74.27c3.39-6.55,8.32-11.48,14.87-14.87-3.39,6.55-8.32,11.48-14.87,14.87ZM39.42,73.51v-5.86c0-3.39.8-4.8,1.1-5.2.33,0,.67-.05.99-.15,3.18-.97,6.11-2.2,8.84-3.64-4.63,3.97-8.28,8.94-10.93,14.86Z"/></g></svg>