<?xml version="1.0" encoding="UTF-8"?><svg id="Layer_2" xmlns="http://www.w3.org/2000/svg" viewBox="0 0 55.74 81.56"><defs><style>.cls-1{fill:#221f20;}</style></defs><g id="Layer_1-2"><path class="cls-1" d="M13.2,37.45c-1.06,2.15-1.67,4.55-1.67,7.11,0,3.8,1.44,12.47,3.85,20.38,3.45,11.34,7.35,16.62,12.27,16.62s8.82-5.28,12.27-16.62c2.41-7.92,3.85-16.58,3.85-20.38,0-2.57-.62-4.99-1.69-7.15,3.77-.5,7.94-2.35,12.45-6.23.77-.66,1.22-1.63,1.22-2.65s-.45-1.99-1.22-2.65c-6.91-5.94-13.02-7.12-18.13-5.99,1.34-5.22.28-11.51-5.87-18.66-.67-.77-1.63-1.22-2.65-1.22s-1.99.45-2.65,1.22c-6.23,7.25-7.23,13.6-5.81,18.86-7.77-2.07-14.03,1.66-18.37,5.96-.66.66-1.04,1.55-1.04,2.49s.37,1.83,1.04,2.49c3.11,3.08,7.22,5.87,12.16,6.44ZM27.64,74.5c-3.7-2.06-9.12-22.42-9.12-29.94,0-5.03,4.09-9.12,9.12-9.12s9.12,4.09,9.12,9.12c0,7.52-5.42,27.89-9.12,29.94ZM46.33,28.53c-4.47,2.66-8.5,2.66-12.5,0,4.01-2.66,8.04-2.66,12.5,0ZM27.87,9.41c2.66,4.47,2.66,8.5,0,12.5-2.66-4.01-2.66-8.04,0-12.5ZM21.47,28.53c-4.47,2.66-8.5,2.66-12.5,0,4.01-2.66,8.04-2.66,12.5,0Z"/></g></svg>