<?xml version="1.0" encoding="UTF-8"?><svg id="Layer_2" xmlns="http://www.w3.org/2000/svg" viewBox="0 0 163.36 153.85"><defs><style>.cls-1{fill:#221f20;}</style></defs><g id="Layer_1-2"><path class="cls-1" d="M81.62,153.85c1.93,0,3.5-1.57,3.5-3.5V3.5c0-1.93-1.57-3.5-3.5-3.5s-3.5,1.57-3.5,3.5v146.85c0,1.93,1.57,3.5,3.5,3.5Z"/><path class="cls-1" d="M161.05,145.03c2.98-5.04,3.08-11.12.26-16.25L96.06,9.91c-2.09-3.81-5.43-6.51-9.38-7.75v7.67c1.33.83,2.45,2,3.25,3.45l65.25,118.87c1.62,2.94,1.56,6.43-.15,9.32-1.71,2.89-4.74,4.62-8.1,4.62h-60.25v7h60.25c5.86,0,11.14-3.01,14.12-8.05Z"/><path class="cls-1" d="M76.68,153.08v-7H16.43c-3.36,0-6.39-1.73-8.1-4.62-1.71-2.89-1.77-6.37-.15-9.32L73.43,13.28c.8-1.45,1.92-2.62,3.25-3.45V2.16c-3.95,1.24-7.29,3.94-9.38,7.75L2.05,128.77c-2.82,5.14-2.72,11.21.26,16.25,2.98,5.04,8.26,8.05,14.12,8.05h60.25Z"/></g></svg>