<?xml version="1.0" encoding="UTF-8"?><svg id="Layer_2" xmlns="http://www.w3.org/2000/svg" viewBox="0 0 118.69 101"><defs><style>.cls-1{fill:#221f20;}</style></defs><g id="Layer_1-2"><path class="cls-1" d="M30.77,23.61c-6.08,0-11.03,4.95-11.03,11.04s4.95,11.03,11.03,11.03,11.04-4.95,11.04-11.03-4.95-11.04-11.04-11.04ZM30.77,38.68c-2.22,0-4.03-1.81-4.03-4.03s1.81-4.04,4.03-4.04,4.04,1.81,4.04,4.04-1.81,4.03-4.04,4.03Z"/><path class="cls-1" d="M117.62,73.87c1.03-.99,1.35-2.5.82-3.83-.53-1.32-1.82-2.19-3.25-2.19-6.4,0-10.8,2.15-13.74,4.62.3-1.09.64-2.21.98-3.36.18-.61.37-1.23.55-1.85.43-1.47-.14-3.04-1.41-3.89-1.26-.85-2.93-.79-4.13.16-1.69,1.35-3.16,2.91-4.37,4.65V27.14c0-6.64-5.41-12.05-12.05-12.05h-15.19V3.5c0-1.19-.6-2.3-1.59-2.94-1-.65-2.25-.74-3.34-.26L27.84,15.09h-15.79C5.4,15.09,0,20.5,0,27.14v9.76c0,1.17.58,2.26,1.56,2.91l26.25,17.54H3.5c-1.93,0-3.5,1.57-3.5,3.5v27.66c0,6.64,5.4,12.05,12.05,12.05h68.97c4.9,0,9.13-2.95,11.01-7.16,1.36,2.53,3.13,4.81,5.26,6.71.66.59,1.49.89,2.33.89.64,0,1.28-.18,1.85-.54,1.32-.82,1.94-2.42,1.52-3.92l-.31-1.07c-.2-.71-.4-1.41-.59-2.1,2.92,2.25,7.15,4.11,13.1,4.11,1.43,0,2.72-.87,3.25-2.19.53-1.33.21-2.84-.82-3.83-3.28-3.15-6.46-7.12-7.09-8.79.63-1.68,3.81-5.65,7.09-8.8ZM86.07,73.45v15.06c0,2.79-2.27,5.05-5.05,5.05H12.05c-2.78,0-5.05-2.26-5.05-5.05v-24.16h32.34c1.55-.01,2.91-1.02,3.35-2.49.45-1.48-.12-3.07-1.4-3.93L7,35.03v-7.89c0-2.79,2.27-5.05,5.05-5.05h16.54c.49,0,.98-.1,1.43-.3l28.81-12.89v9.69c0,1.93,1.57,3.5,3.5,3.5h18.69c2.78,0,5.05,2.26,5.05,5.05v46.31Z"/></g></svg>