<?xml version="1.0" encoding="UTF-8"?><svg id="Layer_2" xmlns="http://www.w3.org/2000/svg" viewBox="0 0 202.75 163.96"><defs><style>.cls-1{fill:#221f20;}</style></defs><g id="Layer_1-2"><path class="cls-1" d="M123.29.72c-29.47-3.34-58.48,5-81.69,23.47C18.4,42.67,3.78,69.08.44,98.55l-.44,3.89h3.91c30.86.08,59.5,14.21,78.58,38.78,9.76,12.58,23.85,20.49,39.67,22.28,2.75.31,5.49.46,8.2.46,36.27,0,67.64-27.31,71.82-64.19C207.73,50.72,172.34,6.28,123.29.72ZM195.22,98.99c-4.06,35.79-36.48,61.61-72.27,57.56-13.93-1.58-26.33-8.55-34.93-19.62-19.58-25.23-48.61-40.17-80.12-41.39,3.91-26.07,17.33-49.35,38.07-65.86C67.7,12.36,94.89,4.55,122.5,7.68c45.22,5.13,77.84,46.09,72.72,91.31Z"/><path class="cls-1" d="M122.99,34.26c-20.1,0-37.14,13.36-42.7,31.67-6.88,2.97-11.2,6.89-11.2,11.74s4.01,8.49,10.47,11.42c4.64,19.69,22.35,34.38,43.43,34.38s38.89-14.79,43.46-34.57c6.22-2.9,10.06-6.65,10.06-11.23s-4.14-8.61-10.78-11.56c-5.5-18.4-22.58-31.85-42.74-31.85ZM122.99,41.26c15.13,0,28.2,8.98,34.15,21.89-9.75-2.63-22.07-3.97-34.34-3.97s-24.24,1.3-33.92,3.86c5.98-12.85,19.02-21.78,34.11-21.78ZM76.09,77.67c0-.88.84-1.95,2.49-3.07-.13,1.4-.2,2.82-.2,4.26,0,.59.01,1.18.04,1.77-1.54-1.08-2.33-2.11-2.33-2.96ZM122.99,116.47c-16.12,0-29.9-10.19-35.24-24.47,9.85,2.75,22.48,4.16,35.05,4.16s25.55-1.45,35.46-4.29c-5.29,14.35-19.11,24.6-35.27,24.6ZM160.24,83.97c-7.82,2.8-20.46,5.19-37.44,5.19s-29.2-2.32-37.05-5.05c-.25-1.71-.37-3.47-.37-5.25,0-2.67.28-5.28.82-7.79,7.87-2.66,20.22-4.89,36.6-4.89s29.15,2.31,37,5.03c.52,2.47.79,5.03.79,7.65,0,1.73-.12,3.44-.35,5.11ZM169.51,77.67c0,.78-.66,1.7-1.95,2.68.02-.49.03-.99.03-1.49,0-1.34-.06-2.67-.18-3.99,1.39,1.03,2.1,1.99,2.1,2.8Z"/></g></svg>