<?xml version="1.0" encoding="UTF-8"?><svg id="Layer_2" xmlns="http://www.w3.org/2000/svg" viewBox="0 0 153.43 153.43"><defs><style>.cls-1{fill:#221f20;}</style></defs><g id="Layer_1-2"><path class="cls-1" d="M76.71,0C34.41,0,0,34.41,0,76.71s34.41,76.72,76.71,76.72,76.71-34.41,76.71-76.72S119.02,0,76.71,0ZM76.71,146.43c-38.44,0-69.71-31.27-69.71-69.72S38.27,7,76.71,7s69.71,31.27,69.71,69.71-31.27,69.72-69.71,69.72Z"/><path class="cls-1" d="M114.75,44.3c1.37-1.37,1.37-3.58,0-4.95-1.37-1.37-3.58-1.37-4.95,0l-29.58,29.59V27.1c0-1.93-1.57-3.5-3.5-3.5s-3.5,1.57-3.5,3.5v41.84l-29.58-29.59c-1.37-1.37-3.58-1.37-4.95,0-1.37,1.37-1.37,3.58,0,4.95l29.58,29.58H26.43c-1.93,0-3.5,1.57-3.5,3.5s1.57,3.5,3.5,3.5h41.84l-29.58,29.58c-1.37,1.37-1.37,3.58,0,4.95.68.68,1.58,1.02,2.47,1.02s1.79-.34,2.47-1.02l29.58-29.59v41.84c0,1.93,1.57,3.5,3.5,3.5s3.5-1.57,3.5-3.5v-41.84l29.58,29.59c.68.68,1.58,1.02,2.47,1.02s1.79-.34,2.47-1.02c1.37-1.37,1.37-3.58,0-4.95l-29.58-29.58h41.84c1.93,0,3.5-1.57,3.5-3.5s-1.57-3.5-3.5-3.5h-41.84l29.58-29.58Z"/></g></svg>