<?xml version="1.0" encoding="UTF-8"?><svg id="Layer_2" xmlns="http://www.w3.org/2000/svg" viewBox="0 0 50.71 69.62"><defs><style>.cls-1{fill:#221f20;}</style></defs><g id="Layer_1-2"><path class="cls-1" d="M50.71,44.27c0-9.89-5.69-18.47-13.97-22.65,5.07-2.59,9.22-7.83,9.98-17.86.08-1.02-.29-2.02-1.02-2.74-.72-.72-1.73-1.09-2.74-1.02-9.72.74-14.94,4.66-17.61,9.52C22.69,4.67,17.46.75,7.74.01c-1.02-.08-2.02.29-2.74,1.02-.72.72-1.09,1.72-1.02,2.74.76,10.03,4.91,15.27,9.98,17.86C5.69,25.8,0,34.38,0,44.27c0,13.98,11.37,25.35,25.36,25.35s25.36-11.37,25.36-25.35ZM39.05,7.68c-1.28,5.04-4.13,7.89-8.84,8.84.95-4.71,3.8-7.56,8.84-8.84ZM20.5,16.52c-4.71-.95-7.56-3.8-8.84-8.84,5.04,1.28,7.88,4.13,8.84,8.84ZM7,44.27c0-10.12,8.23-18.36,18.36-18.36s18.36,8.23,18.36,18.36-8.23,18.35-18.36,18.35S7,54.39,7,44.27Z"/></g></svg>