<?xml version="1.0" encoding="UTF-8"?><svg id="Layer_2" xmlns="http://www.w3.org/2000/svg" viewBox="0 0 163.36 151.68"><defs><style>.cls-1{fill:#221f20;}</style></defs><g id="Layer_1-2"><path class="cls-1" d="M96.07,8.51C93.14,3.18,87.76,0,81.68,0h0c-6.08,0-11.46,3.18-14.38,8.51L2.05,127.38c-2.82,5.14-2.72,11.21.26,16.25,2.98,5.04,8.26,8.05,14.12,8.05h130.5c5.86,0,11.14-3.01,14.12-8.05,2.98-5.04,3.08-11.12.26-16.25L96.07,8.51ZM155.03,140.07c-1.71,2.89-4.74,4.62-8.1,4.62H16.43c-3.36,0-6.39-1.73-8.1-4.62s-1.77-6.38-.15-9.32L73.43,11.88c1.68-3.06,4.76-4.88,8.25-4.88,3.49,0,6.57,1.83,8.25,4.88l65.25,118.86c1.62,2.94,1.56,6.43-.15,9.32Z"/><path class="cls-1" d="M81.7,91.7c15.56,0,28.22-12.66,28.22-28.22v-3.5h-56.44v3.5c0,15.56,12.66,28.22,28.22,28.22ZM102.63,66.98c-1.67,10.04-10.42,17.72-20.93,17.72s-19.26-7.68-20.93-17.72h41.87Z"/><path class="cls-1" d="M131.28,105.78h-4.46c.59-.76,1.01-1.65,1.2-2.62.11-.6-.38-1.14-.99-1.14-2.23,0-3.6-2.44-2.44-4.34h0c.33-.55.07-1.25-.53-1.47-.68-.25-1.4-.38-2.13-.38-4.04,0-7.23,3.95-5.88,8.17.21.65.53,1.26.94,1.79h-10.55c.59-.76,1.01-1.65,1.2-2.62.11-.6-.38-1.14-.99-1.14-2.23,0-3.6-2.44-2.44-4.34h0c.33-.55.07-1.25-.53-1.47-.68-.25-1.4-.38-2.13-.38-4.04,0-7.23,3.95-5.88,8.17.21.65.53,1.26.94,1.79h-10.55c.59-.76,1.01-1.65,1.2-2.62.11-.6-.38-1.14-.99-1.14-2.23,0-3.6-2.44-2.44-4.34h0c.33-.55.07-1.25-.53-1.47-.68-.25-1.4-.38-2.13-.38-4.04,0-7.23,3.95-5.88,8.17.21.65.53,1.26.94,1.79h-10.56c.59-.76,1.01-1.65,1.2-2.62.11-.6-.38-1.14-.99-1.14-2.23,0-3.6-2.44-2.44-4.34h0c.33-.55.07-1.25-.53-1.47-.68-.25-1.4-.38-2.13-.38-4.04,0-7.23,3.95-5.88,8.17.21.65.53,1.26.94,1.79h-10.55c.59-.76,1.01-1.65,1.2-2.62.11-.6-.38-1.14-.99-1.14-2.23,0-3.6-2.44-2.44-4.34h0c.33-.55.07-1.25-.53-1.47-.68-.25-1.4-.38-2.13-.38-4.04,0-7.23,3.95-5.88,8.17.21.65.53,1.26.94,1.79h-3.4c-1.93,0-3.5,1.57-3.5,3.5s1.57,3.5,3.5,3.5h99.2c1.93,0,3.5-1.57,3.5-3.5s-1.57-3.5-3.5-3.5Z"/><path class="cls-1" d="M50.53,119.4c-1.93,0-3.5,1.57-3.5,3.5v11.72c0,1.93,1.57,3.5,3.5,3.5s3.5-1.57,3.5-3.5v-11.72c0-1.93-1.57-3.5-3.5-3.5Z"/><path class="cls-1" d="M71.22,119.4c-1.93,0-3.5,1.57-3.5,3.5v11.72c0,1.93,1.57,3.5,3.5,3.5s3.5-1.57,3.5-3.5v-11.72c0-1.93-1.57-3.5-3.5-3.5Z"/><path class="cls-1" d="M91.9,119.4c-1.93,0-3.5,1.57-3.5,3.5v11.72c0,1.93,1.57,3.5,3.5,3.5s3.5-1.57,3.5-3.5v-11.72c0-1.93-1.57-3.5-3.5-3.5Z"/><path class="cls-1" d="M112.59,119.4c-1.93,0-3.5,1.57-3.5,3.5v11.72c0,1.93,1.57,3.5,3.5,3.5s3.5-1.57,3.5-3.5v-11.72c0-1.93-1.57-3.5-3.5-3.5Z"/></g></svg>