<?xml version="1.0" encoding="UTF-8"?><svg id="Layer_2" xmlns="http://www.w3.org/2000/svg" viewBox="0 0 110.42 110.42"><defs><style>.cls-1{fill:#221f20;}</style></defs><g id="Layer_1-2"><path class="cls-1" d="M78.58,51.58c-1.44,0-2-.47-3.42-1.83-1.66-1.59-3.94-3.78-8.27-3.78s-6.6,2.19-8.27,3.78c-1.42,1.36-1.98,1.83-3.42,1.83s-2-.47-3.42-1.83c-1.66-1.6-3.94-3.78-8.27-3.78s-6.6,2.18-8.26,3.78c-1.42,1.36-1.98,1.83-3.42,1.83s-2-.47-3.42-1.83c-1.66-1.6-3.94-3.78-8.26-3.78-1.93,0-3.5,1.57-3.5,3.5s1.57,3.5,3.5,3.5c1.44,0,2,.47,3.42,1.83,1.66,1.6,3.94,3.78,8.26,3.78s6.6-2.19,8.27-3.78c1.42-1.36,1.98-1.83,3.42-1.83s2,.47,3.42,1.83c1.66,1.6,3.94,3.78,8.27,3.78s6.6-2.19,8.27-3.78c1.42-1.36,1.98-1.83,3.42-1.83s2,.47,3.42,1.83c1.66,1.59,3.94,3.78,8.27,3.78s6.61-2.18,8.27-3.78c1.42-1.36,1.98-1.83,3.42-1.83,1.93,0,3.5-1.57,3.5-3.5s-1.57-3.5-3.5-3.5c-4.33,0-6.61,2.18-8.27,3.78-1.42,1.36-1.98,1.83-3.42,1.83Z"/><path class="cls-1" d="M55.21,0C24.77,0,0,24.77,0,55.21s24.77,55.21,55.21,55.21,55.21-24.77,55.21-55.21S85.66,0,55.21,0ZM55.21,103.42c-26.58,0-48.21-21.63-48.21-48.21S28.63,7,55.21,7s48.21,21.63,48.21,48.21-21.63,48.21-48.21,48.21Z"/><path class="cls-1" d="M29.6,64.24s6.49,2.84-1.13,12.41c-7.62,9.58,4.66,13.67,4.66,13.67,0,0-2.46-3.28,3.65-11.03,6.11-7.75,2.71-13.61-7.18-15.06Z"/><path class="cls-1" d="M51.91,64.24s6.49,2.84-1.13,12.41c-7.62,9.58,4.66,13.67,4.66,13.67,0,0-2.46-3.28,3.65-11.03,6.11-7.75,2.71-13.61-7.18-15.06Z"/><path class="cls-1" d="M74.21,64.24s6.49,2.84-1.13,12.41c-7.62,9.58,4.66,13.67,4.66,13.67,0,0-2.46-3.28,3.65-11.03,6.11-7.75,2.71-13.61-7.18-15.06Z"/><path class="cls-1" d="M43.84,37.87h2.49c.49,0,.88.42.83.91l-.21,2.33c-.04.49.34.91.83.91h3.91c.43,0,.79-.32.83-.75l.27-2.65c.04-.43.4-.75.83-.75h2.53c.49,0,.88.42.83.91l-.21,2.33c-.04.49.34.91.83.91h3.96c.43,0,.79-.32.83-.75l.27-2.65c.04-.43.4-.75.83-.75h4.29c.46,0,.84-.37.84-.84v-4.63c0-.46-.37-.84-.84-.84h-3.49c-.49,0-.88-.43-.83-.92l.21-2.19c.04-.43.4-.75.83-.75h3.28c.46,0,.84-.37.84-.84v-4.63c0-.46-.37-.84-.84-.84h-2.48c-.49,0-.88-.43-.83-.92l.28-2.74c.05-.49-.34-.92-.83-.92h-4.19c-.43,0-.79.33-.83.76l-.28,3.06c-.04.43-.4.76-.83.76h-2.34c-.49,0-.88-.43-.83-.92l.28-2.74c.05-.49-.34-.92-.83-.92h-4.15c-.43,0-.79.33-.83.76l-.28,3.06c-.04.43-.4.76-.83.76h-4.11c-.46,0-.84.37-.84.84v4.63c0,.46.37.84.84.84h3.41c.49,0,.88.43.83.92l-.21,2.19c-.04.43-.4.75-.83.75h-3.19c-.46,0-.84.37-.84.84v4.63c0,.46.37.84.84.84ZM53.22,27.83c.04-.43.4-.75.83-.75h3.74c.49,0,.88.42.83.91l-.31,3.41c-.04.43-.4.76-.83.76h-3.77c-.49,0-.88-.43-.83-.92l.34-3.41Z"/></g></svg>