<?xml version="1.0" encoding="UTF-8"?><svg id="Layer_2" xmlns="http://www.w3.org/2000/svg" viewBox="0 0 184.3 145.17"><defs><style>.cls-1{fill:#221f20;}</style></defs><g id="Layer_1-2"><path class="cls-1" d="M142.38,0h0c-2.66,0-4.99,1.5-6.08,3.93h0c-4.02,8.9-11.79,26.42-19.03,44.47-7.26-18.08-15.02-35.58-19.03-44.46C97.14,1.51,94.81,0,92.15,0h0c-2.66,0-4.99,1.5-6.08,3.93-4.02,8.91-11.79,26.42-19.03,44.46-7.25-18.05-15.01-35.56-19.03-44.46C46.91,1.51,44.58,0,41.93,0h0c-2.66,0-4.99,1.5-6.08,3.93C25.07,27.8,0,85.26,0,103.22c0,22.4,17.66,40.76,39.79,41.87v.07h101.08l1.35-.02c.56,0,1.12,0,1.68-.03h.47v-.02c22.2-1.04,39.94-19.43,39.94-41.88,0-17.96-25.07-75.42-35.85-99.29-1.09-2.42-3.42-3.93-6.08-3.93ZM142.38,138.15c-.46,0-.92-.01-1.38-.03l-3.63-.08v.14H46.79v-.17l-3.62.12c-.41.01-.83.03-1.24.03-19.26,0-34.93-15.67-34.93-34.93,0-13.48,17.98-58.17,34.93-95.75,4.13,9.17,11.81,26.53,18.92,44.28,1.02,2.55,3.45,4.19,6.19,4.19,2.74,0,5.17-1.65,6.19-4.19,7.1-17.75,14.79-35.11,18.92-44.28,4.13,9.16,11.8,26.49,18.92,44.28,1.02,2.54,3.45,4.19,6.19,4.19s5.17-1.64,6.19-4.19c7.1-17.75,14.79-35.11,18.92-44.28,16.94,37.58,34.93,82.27,34.93,95.75,0,19.26-15.67,34.93-34.93,34.93Z"/><path class="cls-1" d="M75.62,120.86c-.11-.04-10.68-3.69-12.83-10.98-1.13-3.83.32-8.31,4.29-13.3,7.19-9.03,10.02-16.91,8.41-23.42-1.28-5.16-5.17-8.09-7.27-9.01-1.77-.77-3.86.02-4.63,1.8-.77,1.77.01,3.82,1.78,4.6.11.05,2.63,1.28,3.35,4.41.68,2.94,0,8.32-7.12,17.26-5.49,6.9-7.35,13.52-5.52,19.67,3.2,10.8,16.74,15.42,17.31,15.61.37.12.74.18,1.11.18,1.46,0,2.82-.93,3.32-2.39.61-1.83-.37-3.81-2.2-4.43Z"/><path class="cls-1" d="M126.74,120.86c-.11-.04-10.68-3.69-12.83-10.98-1.13-3.83.32-8.31,4.29-13.3,7.19-9.03,10.02-16.91,8.41-23.42-1.28-5.16-5.17-8.09-7.27-9.01-1.77-.77-3.86.02-4.63,1.8-.77,1.77.01,3.82,1.78,4.6.11.05,2.63,1.28,3.35,4.41.68,2.94,0,8.32-7.12,17.26-5.49,6.9-7.35,13.52-5.52,19.67,3.2,10.8,16.74,15.42,17.31,15.61.37.12.74.18,1.11.18,1.46,0,2.82-.93,3.32-2.39.61-1.83-.37-3.81-2.2-4.43Z"/></g></svg>