<?xml version="1.0" encoding="UTF-8"?><svg id="Layer_2" xmlns="http://www.w3.org/2000/svg" viewBox="0 0 117.01 11.95"><defs><style>.cls-1{fill:#fce38f;stroke:#221f20;stroke-miterlimit:10;stroke-width:.5px;}</style></defs><g id="Layer_2-2"><path class="cls-1" d="M7.05.43c.32-.03,1.12-.06,1.94-.06s1.6.03,1.92.06c.34.03.5.18.51.58.05,1.3.05,3.1.05,4.97s0,3.67-.05,4.97c-.02.4-.18.55-.51.58-.32.03-1.12.06-1.92.06s-1.62-.03-1.94-.06c-.34-.03-.48-.18-.48-.58v-3.45h-1.41v3.45c0,.4-.14.55-.48.58-.32.03-1.12.06-1.94.06s-1.6-.03-1.92-.06c-.34-.03-.5-.18-.51-.58-.05-1.3-.05-3.06-.05-4.97s0-3.67.05-4.97c.02-.4.18-.55.51-.58.32-.03,1.12-.06,1.92-.06s1.62.03,1.94.06c.34.03.48.18.48.58v3.29h1.41V1c0-.4.14-.55.48-.58Z"/><path class="cls-1" d="M21.34,2.8c.91.11,1.2.29,1.41,1.15.13.59.27,1.73.27,3.21s-.14,2.61-.27,3.21c-.21.87-.5,1.04-1.41,1.15-.83.11-2.1.14-3.38.14s-2.55-.03-3.38-.14c-.91-.11-1.2-.29-1.41-1.15-.13-.59-.27-1.73-.27-3.21s.14-2.61.27-3.21c.21-.87.5-1.04,1.41-1.15.83-.11,2.1-.14,3.38-.14s2.55.03,3.38.14ZM17.36,5.33c-.03.45-.03,1.12-.03,1.83s0,1.36.03,1.81c.02.26.19.37.59.37s.58-.11.59-.37c.03-.45.03-1.14.03-1.81s0-1.38-.03-1.83c-.02-.26-.19-.37-.59-.37s-.58.11-.59.37Z"/><path class="cls-1" d="M35.17,2.77c.37-.03,1.2-.03,1.59-.03s1.27,0,1.65.03c.4.03.53.22.48.59l-1.07,7.75c-.05.3-.21.43-.51.45-.82.03-1.65.03-2.47.03s-1.67,0-2.29-.03c-.3-.02-.48-.16-.51-.45l-.56-4.99h-.06l-.56,4.99c-.03.29-.21.43-.51.45-.63.03-1.51.03-2.29.03s-1.65,0-2.47-.03c-.3-.02-.47-.14-.51-.45l-1.07-7.75c-.05-.37.08-.56.48-.59.38-.03,1.27-.03,1.65-.03s1.22,0,1.59.03c.26.02.4.13.42.38l.42,5.28h.06l.82-5.29c.03-.24.18-.35.42-.37.34-.03,1.03-.03,1.6-.03s1.27,0,1.6.03c.24.02.38.13.42.37l.82,5.29h.06l.42-5.28c.02-.26.16-.37.42-.38Z"/><path class="cls-1" d="M54.61,2.24c0,.32,0,.91-.02,1.23-.02.4-.24.58-.64.58-.5,0-1.64-.03-2.29-.03v1.96c0,1.91,0,3.67-.05,4.97-.02.4-.18.55-.51.58-.32.03-1.14.06-1.94.06s-1.62-.03-1.94-.06c-.34-.03-.5-.18-.51-.58-.05-1.3-.05-3.06-.05-4.97v-1.96c-.66,0-1.8.03-2.29.03-.4,0-.63-.18-.64-.58-.02-.32-.02-.91-.02-1.23s0-.91.02-1.23c.02-.4.24-.55.56-.58.45-.05,3.09-.06,4.88-.06s4.43.03,4.88.06c.32.03.54.18.56.58.02.32.02.91.02,1.23Z"/><path class="cls-1" d="M63.67,2.8c.91.11,1.2.29,1.41,1.15.13.59.27,1.73.27,3.21s-.14,2.61-.27,3.21c-.21.87-.5,1.04-1.41,1.15-.83.11-2.1.14-3.38.14s-2.55-.03-3.38-.14c-.91-.11-1.2-.29-1.41-1.15-.13-.59-.27-1.73-.27-3.21s.14-2.61.27-3.21c.21-.87.5-1.04,1.41-1.15.83-.11,2.1-.14,3.38-.14s2.55.03,3.38.14ZM59.69,5.33c-.03.45-.03,1.12-.03,1.83s0,1.36.03,1.81c.02.26.19.37.59.37s.58-.11.59-.37c.03-.45.03-1.14.03-1.81s0-1.38-.03-1.83c-.02-.26-.19-.37-.59-.37s-.58.11-.59.37Z"/><path class="cls-1" d="M77.69.43c.32-.03,1.11-.06,1.92-.06s1.6.03,1.92.06c.34.03.5.18.51.58.05,1.35.06,4.17.06,5.84,0,3.98-.67,4.86-5.61,4.86s-5.61-.79-5.61-4.86c0-1.67.02-4.49.06-5.84.02-.4.18-.55.51-.58.32-.03,1.12-.06,1.92-.06s1.6.03,1.92.06c.34.03.48.18.48.58v7.36c0,.37.06.42.71.42s.71-.05.71-.42V1c0-.4.14-.55.48-.58Z"/><path class="cls-1" d="M86.11,2.69c.75-.05,1.72-.06,2.39-.06s1.64.02,2.39.06c2.18.14,2.63.64,2.63,2.65,0,.27-.02.38-.29.42-.64.02-1.48.02-1.96.02s-1.51,0-1.83-.02c-.26-.03-.27-.05-.3-.27-.02-.13-.02-.29-.03-.4-.03-.27-.19-.35-.61-.35-.45,0-.59.1-.59.35v1.19c0,.19.05.22.16.22,1.07,0,4.75,0,5.05.02.27.02.4.13.4.4v2.08c0,2-.45,2.5-2.63,2.65-.75.05-1.73.06-2.39.06s-1.64-.02-2.39-.06c-2.18-.14-2.63-.64-2.63-2.65,0-.27.02-.38.29-.42.64-.02,1.47-.02,1.96-.02s1.51,0,1.83.02c.26.03.27.05.3.27.02.13.02.29.03.4.03.27.18.35.61.35s.59-.1.59-.35v-1.19c0-.19-.05-.22-.16-.22-1.09,0-4.75,0-5.05-.02-.27,0-.4-.13-.4-.4v-2.08c0-2,.45-2.5,2.63-2.65Z"/><path class="cls-1" d="M99.17,9.26c.02.27.18.35.64.35s.63-.08.64-.35c.02-.19.02-.5.02-.77,0-.24.05-.24.3-.26.34-.03,1.31-.03,1.8-.03s1.32,0,1.91.03c.3.02.34.18.34.48,0,.45-.1,1.07-.21,1.62-.18.85-.48,1.07-1.41,1.19-.85.1-2.2.14-3.38.14-1.28,0-2.55-.03-3.38-.14-.91-.11-1.2-.32-1.41-1.19-.13-.59-.27-1.73-.27-3.21s.14-2.55.27-3.14c.21-.87.5-1.07,1.41-1.19.83-.11,2.1-.14,3.38-.14s2.55.03,3.38.14c.91.11,1.2.32,1.41,1.19.11.59.27,1.56.27,2.71,0,.63-.08.74-.47.75-.56.03-1.25.03-1.84.03h-3.43c0,.67,0,1.38.03,1.78ZM100.45,5.08c-.02-.27-.19-.35-.64-.35s-.62.08-.64.35c-.02.27-.02.64-.03,1.06h1.35c0-.37-.02-.72-.03-1.06Z"/><path class="cls-1" d="M110.22,4.29c-.32.03-1.52.06-2,.06s-1.81-.03-2.15-.06c-.27-.03-.32-.08-.32-.48s.14-1.46.26-2c.24-1.09.63-1.27,1.8-1.4.83-.1,2.45-.16,3.42-.16s2.81.06,3.66.16c1.35.14,1.67.45,1.8,1.38.05.4.1,1.23.1,2.07s-.05,1.67-.1,2.07c-.13.91-.45,1.28-1.8,1.33-.48.02-1.7.03-2.53.03s-2.05-.02-2.53-.03c-.69-.02-.85-.16-.85-1.09s.16-1.09.85-1.09h1.83c.14,0,.19-.03.19-.26v-1.4c0-.32-.06-.43-.61-.43-.48,0-.61.06-.62.42l-.03.58c-.02.26-.03.27-.34.3ZM112.98,8.2c.26.02.46.11.48.46.02.45.02.8.02,1.2s0,.75-.02,1.2c-.02.35-.22.45-.48.46-.26.02-1.03.05-1.76.05s-1.51-.03-1.76-.05c-.26-.02-.46-.11-.48-.46-.02-.45-.02-.8-.02-1.2s0-.75.02-1.2c.02-.35.22-.45.48-.46s1.03-.05,1.76-.05,1.51.03,1.76.05Z"/></g></svg>