<?xml version="1.0" encoding="UTF-8"?><svg id="Layer_2" xmlns="http://www.w3.org/2000/svg" viewBox="0 0 168.21 153.97"><defs><style>.cls-1{fill:#221f20;}</style></defs><g id="Layer_1-2"><path class="cls-1" d="M19.51,153.97h129.19c10.76,0,19.51-8.75,19.51-19.51V19.51c0-10.76-8.75-19.51-19.51-19.51H19.51C8.75,0,0,8.75,0,19.51v114.96c0,10.76,8.75,19.51,19.51,19.51ZM7,19.51c0-6.9,5.61-12.51,12.51-12.51h129.19c6.9,0,12.51,5.61,12.51,12.51v114.96c0,6.9-5.61,12.51-12.51,12.51H19.51c-6.9,0-12.51-5.61-12.51-12.51V19.51Z"/><path class="cls-1" d="M32.87,128.22c7.17,7.17,16.71,11.12,26.85,11.12h0c9.02,0,17.55-3.12,24.38-8.85,14.9,12.5,37.22,11.74,51.23-2.27,14.01-14.01,14.77-36.33,2.27-51.23,5.73-6.82,8.85-15.36,8.85-24.38,0-10.15-3.95-19.68-11.12-26.85-7.17-7.17-16.71-11.12-26.86-11.12h0c-9.02,0-17.55,3.12-24.38,8.85-14.81-12.44-36.5-11.47-50.74,2.77-14.24,14.24-15.21,35.92-2.77,50.73-12.49,14.9-11.74,37.22,2.28,51.23ZM37.82,74.51c-12-12-11.78-31.03.5-43.31,6.24-6.23,14.2-9.36,22.11-9.36s15.29,2.95,21.2,8.86l2.47,2.47,2.47-2.48c5.85-5.85,13.62-9.07,21.9-9.07h0c8.28,0,16.06,3.22,21.91,9.08s9.07,13.63,9.07,21.9-3.22,16.05-9.07,21.9l-2.48,2.48,2.48,2.48c12.08,12.08,12.07,31.73,0,43.81s-31.73,12.08-43.81,0l-2.47-2.47-2.47,2.47c-5.85,5.85-13.63,9.07-21.9,9.07h0c-8.27,0-16.05-3.22-21.9-9.07-5.85-5.85-9.08-13.63-9.08-21.91,0-8.27,3.22-16.05,9.07-21.9l2.47-2.48-2.47-2.47Z"/><path class="cls-1" d="M84.1,112.57c19.62,0,35.58-15.96,35.58-35.58s-15.96-35.58-35.58-35.58-35.58,15.96-35.58,35.58,15.96,35.58,35.58,35.58ZM84.1,48.41c15.76,0,28.58,12.82,28.58,28.58s-12.82,28.58-28.58,28.58-28.58-12.82-28.58-28.58,12.82-28.58,28.58-28.58Z"/></g></svg>