<?xml version="1.0" encoding="UTF-8"?><svg id="Layer_2" xmlns="http://www.w3.org/2000/svg" viewBox="0 0 197.67 166.33"><defs><style>.cls-1{fill:#221f20;}</style></defs><g id="Layer_1-2"><path class="cls-1" d="M122.14,15.84c-20.94-4.53-42.33-1.05-60.21,9.8-17.77,10.77-30.64,27.89-36.25,48.2-.82,2.97-.37,6.18,1.24,8.81,1.62,2.64,4.28,4.51,7.31,5.13,20.14,4.13,38.41,16.65,50.12,34.37,6.98,10.56,17.5,17.82,29.62,20.44,3.96.86,7.93,1.28,11.85,1.28,10.66,0,20.97-3.12,29.88-9.17,12.19-8.27,20.27-21,22.75-35.85h0c6.3-37.69-18.96-74.93-56.31-83ZM171.55,97.69c-2.17,12.95-9.19,24.03-19.78,31.22-10.59,7.18-23.49,9.61-36.32,6.84-10.32-2.23-19.29-8.43-25.26-17.46-12.73-19.25-32.61-32.87-54.56-37.36-1.16-.24-2.13-.92-2.75-1.93-.61-1-.78-2.17-.47-3.29,9.2-33.31,38.47-54.82,71.62-54.82,5.46,0,11.03.58,16.62,1.79,33.75,7.3,56.58,40.95,50.89,75.01Z"/><path class="cls-1" d="M127.04,33.93c-13.68-4.88-28.43-4.6-41.55.79-12.99,5.34-23.54,15.31-29.73,28.08-1.35,2.79-1.48,6.06-.35,8.96,1.13,2.89,3.43,5.19,6.31,6.32,12.42,4.87,22.59,14.35,28.62,26.71,3.96,8.1,10.73,14.2,19.05,17.17,4.33,1.54,8.77,2.31,13.17,2.31,5.84,0,11.61-1.35,16.94-4.03,9.34-4.7,16.2-12.93,19.32-23.15h0c7.84-25.77-6.42-54.1-31.79-63.16ZM152.13,95.05c-2.55,8.38-8.15,15.11-15.77,18.94-7.62,3.83-16.36,4.33-24.61,1.38-6.59-2.35-11.96-7.2-15.11-13.65-6.81-13.94-18.3-24.65-32.36-30.16-1.08-.42-1.92-1.26-2.34-2.36-.43-1.1-.39-2.29.13-3.35,8.71-17.98,26.11-28.44,44.92-28.44,5.84,0,11.81,1.01,17.7,3.11,21.9,7.82,34.22,32.28,27.44,54.53Z"/><path class="cls-1" d="M128.71,49.08c-15.51-8.13-34.18-4.62-45.4,8.56-2.04,2.39-2.96,5.55-2.54,8.66.43,3.2,2.22,6.09,4.92,7.92,5.81,3.96,10.24,9.92,12.47,16.78,1.84,5.65,5.69,10.26,10.86,12.97,3.73,1.95,7.74,2.94,11.76,2.94,2.66,0,5.33-.43,7.92-1.31,6.49-2.2,11.7-6.9,14.65-13.24h0c7.35-15.78.78-35.2-14.63-43.28ZM137,89.41c-2.14,4.59-5.88,7.99-10.55,9.57s-9.7,1.15-14.19-1.2c-3.54-1.85-6.18-5.03-7.45-8.93-2.71-8.33-8.1-15.58-15.19-20.41-1.05-.72-1.75-1.84-1.92-3.07-.16-1.17.17-2.3.93-3.19,5.81-6.82,14.09-10.43,22.6-10.43,4.8,0,9.68,1.15,14.23,3.54,12.16,6.38,17.33,21.68,11.54,34.13Z"/><path class="cls-1" d="M124.27,2.48c-26.88-5.81-54.32-1.35-77.27,12.57C24.2,28.87,7.68,50.84.48,76.91c-.99,3.57-.44,7.44,1.5,10.6,1.95,3.18,5.15,5.42,8.8,6.17,26.37,5.4,50.28,21.8,65.6,44.98,8.9,13.46,22.3,22.71,37.73,26.04,5.06,1.09,10.12,1.63,15.13,1.63,13.6,0,26.78-3.99,38.15-11.7,15.55-10.55,25.87-26.81,29.04-45.77h0C204.51,60.55,172.13,12.83,124.27,2.48ZM189.53,107.7c-2.86,17.06-12.11,31.67-26.07,41.14-13.96,9.47-30.96,12.67-47.87,9.02-13.64-2.95-25.49-11.14-33.37-23.06-16.34-24.71-41.87-42.2-70.04-47.97-1.78-.36-3.28-1.42-4.23-2.97-.94-1.54-1.2-3.35-.72-5.08,6.72-24.34,22.14-44.84,43.4-57.73,15.28-9.27,32.71-14.04,50.56-14.04,7.17,0,14.41.77,21.6,2.32,44.27,9.57,74.21,53.7,66.74,98.38Z"/></g></svg>