<?xml version="1.0" encoding="UTF-8"?><svg id="Layer_2" xmlns="http://www.w3.org/2000/svg" viewBox="0 0 153.43 153.43"><defs><style>.cls-1{fill:#221f20;}</style></defs><g id="Layer_1-2"><path class="cls-1" d="M131.25,73.22c-.3,0-.58.05-.85.12-1.26.05-2.39.24-3.4.53,0-.03,0-.06,0-.09,0-8.06-6.55-14.61-14.61-14.61-4.25,0-8.07,1.84-10.74,4.74-.3-.69-.71-1.33-1.27-1.89l-18.85-18.85c-2.39-2.39-6.26-2.39-8.64,0l-9.02,9.01c-1.11-.18-2.24-.3-3.4-.3-11.43,0-20.72,9.3-20.72,20.72,0,3.28.76,6.42,2.2,9.28-.46.08-.95.14-1.51.14-3.13,0-4.53-1.34-6.64-3.38-2.37-2.27-5.3-5.07-10.76-5.31-.27-.07-.56-.12-.85-.12-1.93,0-3.5,1.57-3.5,3.5,0,32,26.03,58.03,58.03,58.03s58.03-26.03,58.03-58.03c0-1.93-1.57-3.5-3.5-3.5ZM112.39,66.17c4.2,0,7.61,3.41,7.61,7.61s-3.41,7.61-7.61,7.61-7.61-3.41-7.61-7.61,3.41-7.61,7.61-7.61ZM97.79,73.58c-.09-.02-.19-.03-.29-.05l.31-.31c0,.12-.02.24-.02.36ZM60.47,58.88c7.57,0,13.72,6.16,13.72,13.72,0,2.76-.82,5.39-2.35,7.66-.57-.47-1.14-1.01-1.78-1.62-2.47-2.37-5.55-5.33-11.49-5.33-5.36,0-8.39,2.41-10.75,4.62-.71-1.67-1.08-3.47-1.08-5.33,0-7.57,6.16-13.72,13.72-13.72ZM40.44,89.02c5.94,0,9.02-2.95,11.49-5.33,2.12-2.03,3.52-3.38,6.64-3.38s4.53,1.34,6.64,3.38c2.47,2.37,5.55,5.33,11.49,5.33s9.02-2.95,11.49-5.33c2.12-2.03,3.52-3.38,6.65-3.38s4.53,1.34,6.65,3.38c2.47,2.37,5.55,5.33,11.49,5.33s9.02-2.95,11.5-5.33c1.1-1.05,2.01-1.92,3.06-2.51-.54,6.23-2.2,12.15-4.79,17.54v-.36c-5.25,0-8.05,2.69-10.1,4.66-1.76,1.69-2.82,2.71-5.25,2.71s-3.49-1.02-5.25-2.71c-2.05-1.97-4.85-4.66-10.1-4.66s-8.05,2.69-10.1,4.66c-1.76,1.69-2.82,2.71-5.25,2.71s-3.49-1.02-5.25-2.71c-2.05-1.97-4.85-4.66-10.1-4.66s-8.05,2.69-10.09,4.66c-1.76,1.69-2.82,2.71-5.25,2.71s-3.49-1.02-5.25-2.71c-2.05-1.97-4.85-4.66-10.1-4.66v.36c-2.59-5.39-4.24-11.31-4.79-17.54,1.05.59,1.96,1.45,3.06,2.51,2.47,2.37,5.55,5.33,11.49,5.33ZM76.72,127.75c-15.45,0-29.31-6.91-38.68-17.8,1.85,1.46,4.32,2.77,7.98,2.77,5.24,0,8.05-2.69,10.09-4.66,1.76-1.69,2.82-2.71,5.25-2.71s3.49,1.02,5.25,2.71c2.05,1.97,4.85,4.66,10.1,4.66s8.05-2.69,10.1-4.66c1.76-1.69,2.82-2.71,5.25-2.71s3.49,1.02,5.25,2.71c2.05,1.97,4.85,4.66,10.1,4.66,3.66,0,6.13-1.31,7.99-2.77-9.37,10.89-23.23,17.8-38.68,17.8Z"/><path class="cls-1" d="M153.36,73.33C151.49,31.07,115.63-1.8,73.33.08,31.07,1.94-1.79,37.84.08,80.1c1.82,41.11,35.84,73.33,76.6,73.33,1.13,0,2.28-.02,3.42-.08,42.26-1.87,75.12-37.76,73.26-80.02h0ZM79.79,146.36c-38.41,1.68-71.03-28.17-72.72-66.57C5.37,41.39,35.24,8.77,73.64,7.07c1.04-.05,2.08-.07,3.11-.07,37.04,0,67.96,29.28,69.61,66.64,1.69,38.4-28.17,71.03-66.57,72.72Z"/></g></svg>