<?xml version="1.0" encoding="UTF-8"?><svg id="Layer_2" xmlns="http://www.w3.org/2000/svg" viewBox="0 0 135.66 178.58"><defs><style>.cls-1{fill:#fff;}.cls-2{fill:#e4803b;}.cls-3{fill:#211f1f;}.cls-4{fill:#f9d478;}</style></defs><g id="Layer_2-2"><path class="cls-3" d="M124.23,86.73c9.52-14.91,13.43-28.94,10.45-37.55-1.34-3.88-4-6.54-7.9-7.91-4.74-1.66-8.23-1.58-10.38.23-2.26,1.9-2.26,5.08-2.16,6.36-.75.21-1.48.58-2.13,1.07-2.22,1.71-3.39,3.76-3.48,6.09-.16,4.29,3.43,8.15,4.58,9.28-1.27,6.52-3.96,12.19-7.26,17.02-1.71-3.34-1.94-7.79-2.17-12.49-.45-9.06-1.01-19.74-12.39-27.08l2.63-10.21c1.9.61,6.42,1.68,9.97-.56,2.74-1.73,4.24-5.04,4.46-9.8.21-4.74-1.01-8.24-3.62-10.4-3.59-2.98-8.68-2.45-10.42-2.16-2.66-4.38-6.17-7.12-10.45-8.15-7.34-1.78-14.62,1.97-16.7,3.17-1.72-1.32-6.21-2.46-10.3-1.69-3.27.62-7.4,2.64-8.45,8.8-.61,3.56,0,6.63,1.82,9.13,2.64,3.63,7.06,4.99,8.93,5.42l-2.27,9.86c-3.5.83-6.62,2.29-9.35,4.36-9.58,7.31-11.79,20.24-12.26,27.29-.16,2.31-.84,4.62-2.04,6.83-4.07,7.53-4.81,14.09-2.17,19.49,1.26,2.56,3.14,4.61,5.24,6.23-.55.65-2.54,1.99-9.53,1.45-2.5-.2-4.15-.88-4.89-2.03-.8-1.23-.46-2.9-.03-4.09,1.11-3.08.97-6.26-.4-8.95-1.38-2.72-3.72-5.95-8.62-4.67-1.11-1.97-5.35-8.81-9.89-7.1-1.01.38-1.7,1.1-2.02,2.08-1.01,3.07,1.87,8.09,2.83,9.65C1.18,88.87-.12,92.02,0,95.06c.13,3.15,1.77,6.16,4.86,8.94,1.39,1.26,2.43,2.54,3.17,3.91,2.2,4.1,8,12.51,18.5,12.51,1.44,0,2.97-.17,4.59-.51-1.64,5.66-3.04,15.31-4.05,28.33l-.03.49.41.27c.25.16,2.2,1.35,6.12,2.71-.21,6.48,1.1,12.35,1.54,14.13-4.96,3.9-6.9,6.75-6.1,8.93.95,2.57,5.41,3.25,11.45,3.25,2.39,0,5.02-.11,7.78-.24l1.39-.07c2.58-.12,4.69-1.12,6.29-2.99,3.53-4.1,3.55-11.22,3.42-13.88,7.06.81,15.56.02,17.94-.22.64,1.6,2.57,6.32,5.23,12.16,2.01,4.44,7.35,5.8,13.11,5.8,4.58,0,9.44-.86,13.08-1.7,2.08-.48,3.25-1.39,3.46-2.7.54-3.33-5.91-7.64-7.87-8.86l-3-12.93c5.85-13.63.16-35.02-.91-38.73,5.33-4.31,15.14-13.28,23.85-26.92ZM61.27,23.97l-.88-.12c-.06,0-5.77-.88-8.71-4.93-1.54-2.12-2.06-4.77-1.53-7.88.71-4.15,3.07-6.66,7.02-7.44,4.34-.85,8.82.8,9.27,1.52l.44.73.72-.46c.08-.05,8.18-5.19,15.99-3.3,3.99.97,7.25,3.62,9.7,7.88l.31.54.59-.14c.06-.02,5.94-1.34,9.6,1.71,2.19,1.82,3.2,4.86,3.01,9.05-.19,4.19-1.43,7.04-3.69,8.47-3.77,2.39-9.28.14-9.33.12l-.88-.36-2.97,11.54c-3.97-2.27-9.11-4.18-15.79-5.54-5.69-1.16-10.81-1.33-15.35-.54l2.49-10.83ZM32.66,92.4c-2.39-4.89-1.67-10.93,2.14-17.97,1.31-2.43,2.06-4.95,2.23-7.51.45-6.77,2.57-19.17,11.62-26.09,6.19-4.72,14.66-6.03,25.15-3.89,6.99,1.42,12.2,3.43,16.13,5.82.02.02.05.02.07.04,11.15,6.86,11.66,16.94,12.12,26.11.26,5.22.51,10.15,2.77,13.91-8.16,11.13-19.29,17.47-22.26,19.03-.76.4-1.33,1.11-1.57,1.93l-1.81,6.48c-.26.92-1.07,1.57-2.02,1.64-4.9.3-17.47.83-28.31-.77-.96-.14-1.67-.97-1.65-1.93.02-1.16.13-2.82.51-4.51,1.16.3,1.93.44,2.06.45.04,0,.09.02.13.02.4,0,.75-.29.82-.69.07-.45-.23-.88-.68-.95-.13-.02-13.17-2.33-17.46-11.13ZM2.59,76.56c.17-.51.5-.84,1.03-1.05,2.88-1.08,6.25,3.53,7.73,6.11-.14.05-.27.11-.41.17-1.76-.5-3.75.38-5.93,2.63-1.21-2.04-3.07-5.86-2.42-7.85ZM9.49,107.15c-.82-1.54-2.01-3.01-3.53-4.37-2.74-2.47-4.19-5.09-4.3-7.78-.12-2.93,1.34-6.04,4.35-9.25,1.27-1.36,3.11-2.87,4.57-2.36,1.96.68,2.98,4.42,3.39,6.91-2.79-1.24-7.02-.48-7.56-.37-.45.09-.74.52-.65.97.08.45.52.73.97.65,1.54-.31,5.89-.74,7.47.81.53.53.7,1.27.52,2.26-.3,1.71-.94,2.85-1.9,3.4-1.29.73-2.81.19-2.82.19-.43-.17-.9.05-1.07.48-.16.43.06.9.49,1.07.05.02.82.31,1.84.31.72,0,1.55-.14,2.36-.6,1.41-.8,2.33-2.33,2.73-4.54.23-1.26.04-2.33-.54-3.18,0-.04.02-.07,0-.11-.06-.73-.64-6.26-3.12-8.77,4.12-1.39,6,.88,7.38,3.62,1.16,2.29,1.27,5,.32,7.65-.79,2.2-.73,4.12.2,5.54,1.04,1.6,3.1,2.54,6.15,2.77,1.14.09,2.2.14,3.18.14,3.61,0,6.09-.61,7.42-1.81.17-.16.3-.31.4-.45,1.1.73,2.23,1.37,3.34,1.92-2.87,13.35-6.9,18.55-9,20.44,1.38-5.86,2.54-6.82,2.77-6.95.36,0,.68-.26.77-.61.12-.45-.14-.9-.59-1.02-.17-.04-.6-.1-1.16.3-.75.54-1.47,1.78-2.16,3.67-12.95,3.34-19.85-6.51-22.23-10.93ZM99.67,151.97l-.12.26,3.28,14.14.3.18c3.25,1.97,7.69,5.57,7.4,7.37-.12.73-1.26,1.14-2.2,1.35-6.23,1.44-21.06,4.01-24.31-3.16-3.25-7.16-5.41-12.62-5.43-12.68l-.23-.59-.64.08c-.15.02-15.1,1.76-22.92-.64-.45-.13-.9.12-1.03.55-.14.44.11.89.55,1.03,1.03.31,2.16.56,3.37.75.12,2.15.26,9.26-3.01,13.04-1.31,1.53-2.98,2.32-5.11,2.42l-1.4.07c-5.8.28-16.58.81-17.59-1.92-.3-.81.08-2.85,6-7.39l.44-.34-.15-.54c-.02-.07-1.78-6.52-1.64-13.69,5.62,1.74,14.41,3.53,26.91,3.53,8.98,0,19.87-.92,32.85-3.46l.63-.12.03-.64c0-.07.37-7.56-1.21-18.15,1.69-.16,5.24-.63,7.52-1.9.59,6.91.33,14.56-2.28,20.45ZM101.77,129.66c-1.86,1.49-6.58,2.07-8.34,2.17l-.91.05.14.9c1.42,9.08,1.4,15.98,1.35,18.05-42.27,8.11-62.17-1.32-65.24-2.98.85-10.82,1.86-18,2.8-22.77,1.47-.76,7.25-4.78,11.06-22.14,1.29.55,2.5.97,3.56,1.3-.42,1.85-.54,3.67-.57,4.94-.03,1.78,1.28,3.33,3.06,3.59,5.85.86,12.2,1.11,17.6,1.11,4.73,0,8.74-.2,11.06-.34,1.65-.1,3.06-1.24,3.5-2.84l1.82-6.47c.11-.4.38-.73.74-.92.65-.35,1.7-.92,3.01-1.72-2.49,15.62-.48,24.21,6,25.52,1.38.28,2.6.4,3.67.4,2.54,0,4.24-.64,5.26-1.21.16,1.07.3,2.2.42,3.34ZM98.92,112.71c-2.01,1.6-3.23,2.42-3.25,2.43-.38.26-.48.77-.22,1.15.16.24.42.37.69.37.16,0,.31-.05.45-.14.04-.03.92-.61,2.39-1.75.47,1.75,1.36,5.33,2.1,9.77-.8.61-3.28,2-8.34.97-3.88-.78-7.79-5.79-4.47-25.08,8.3-5.39,23.18-17.44,26.64-36.27l.08-.45-.34-.31s-4.53-4.11-4.38-8.32c.07-1.82,1.02-3.44,2.83-4.83,1.24-.96,2.83-1.24,4.16-.73,1.97.74,3,2.83,3.13,4.57.1,1.28-.27,2.31-.96,2.71-.84.47-2.21.08-3.87-1.09-.37-.26-.89-.18-1.16.19s-.17.89.2,1.16c2.83,2.01,4.63,1.75,5.64,1.18.17-.09.31-.2.45-.31.78.67,2.25,1.74,3.7,1.74.31,0,.6-.05.9-.15,1.33-.47,2.12-1.97,2.36-4.45.04-.45-.3-.85-.75-.9-.45-.04-.86.3-.9.75-.16,1.73-.6,2.81-1.26,3.04-.86.31-2.27-.66-3.08-1.39.31-.73.45-1.63.36-2.6-.09-1.23-.54-2.58-1.36-3.74.99-1.4,2.62-3.15,3.48-3.1.45.03.85-.32.88-.78.02-.45-.32-.84-.78-.88-1.82-.12-3.77,2.2-4.72,3.49-.5-.41-1.06-.76-1.7-1-.63-.24-1.3-.35-1.97-.34-.07-1.07-.03-3.51,1.59-4.87,1.65-1.38,4.68-1.35,8.77.07,3.4,1.19,5.72,3.51,6.89,6.89,2.77,8.02-1.16,21.86-10.28,36.12-8.82,13.81-18.77,22.77-23.91,26.87Z"/><path class="cls-2" d="M110.53,173.91c-.12.73-1.26,1.14-2.2,1.35-6.23,1.44-21.06,4.01-24.31-3.16-3.25-7.16-5.41-12.62-5.43-12.68l-.23-.59-.64.08c-.15.02-15.1,1.76-22.92-.64-.45-.13-.9.12-1.03.55-.14.44.11.89.55,1.03,1.03.31,2.16.56,3.37.75.12,2.15.26,9.26-3.01,13.04-1.31,1.53-2.98,2.32-5.11,2.42l-1.4.07c-5.8.28-16.58.81-17.59-1.92-.3-.81.08-2.85,6-7.39l.44-.34-.15-.54c-.02-.07-1.78-6.52-1.64-13.69,5.62,1.74,14.41,3.53,26.91,3.53,8.98,0,19.87-.92,32.85-3.46l.63-.12.03-.64c0-.07.37-7.56-1.21-18.15,1.69-.16,5.24-.63,7.52-1.9.59,6.91.33,14.56-2.28,20.45l-.12.26,3.28,14.14.3.18c3.25,1.97,7.69,5.57,7.4,7.37Z"/><path class="cls-4" d="M92.66,132.79c1.42,9.08,1.4,15.98,1.35,18.05-42.27,8.11-62.17-1.32-65.24-2.98.85-10.82,1.86-18,2.8-22.77,1.47-.76,7.25-4.78,11.06-22.14,1.29.55,2.5.97,3.56,1.3-.42,1.85-.54,3.67-.57,4.94-.03,1.78,1.28,3.33,3.06,3.59,5.85.86,12.2,1.11,17.6,1.11,4.73,0,8.74-.2,11.06-.34,1.65-.1,3.06-1.24,3.5-2.84l1.82-6.47c.11-.4.38-.73.74-.92.65-.35,1.7-.92,3.01-1.72-2.49,15.62-.48,24.21,6,25.52,1.38.28,2.6.4,3.67.4,2.54,0,4.24-.64,5.26-1.21.16,1.07.3,2.2.42,3.34-1.86,1.49-6.58,2.07-8.34,2.17l-.91.05.14.9Z"/><path class="cls-2" d="M11.36,81.62c-.14.05-.27.11-.41.17-1.76-.5-3.75.38-5.93,2.63-1.21-2.04-3.07-5.86-2.42-7.85.17-.51.5-.84,1.03-1.05,2.88-1.08,6.25,3.53,7.73,6.11Z"/><path class="cls-2" d="M41.09,102.25c-2.87,13.35-6.9,18.55-9,20.44,1.38-5.86,2.54-6.82,2.77-6.95.36,0,.68-.26.77-.61.12-.45-.14-.9-.59-1.02-.17-.04-.6-.1-1.16.3-.75.54-1.47,1.78-2.16,3.67-12.95,3.34-19.85-6.51-22.23-10.93-.82-1.54-2.01-3.01-3.53-4.37-2.74-2.47-4.19-5.09-4.3-7.78-.12-2.93,1.34-6.04,4.35-9.25,1.27-1.36,3.11-2.87,4.57-2.36,1.96.68,2.98,4.42,3.39,6.91-2.79-1.24-7.02-.48-7.56-.37-.45.09-.74.52-.65.97.08.45.52.73.97.65,1.54-.31,5.89-.74,7.47.81.53.53.7,1.27.52,2.26-.3,1.71-.94,2.85-1.9,3.4-1.29.73-2.81.19-2.82.19-.43-.17-.9.05-1.07.48-.16.43.06.9.49,1.07.05.02.82.31,1.84.31.72,0,1.55-.14,2.36-.6,1.41-.8,2.33-2.33,2.73-4.54.23-1.26.04-2.33-.54-3.18,0-.04.02-.07,0-.11-.06-.73-.64-6.26-3.12-8.77,4.12-1.39,6,.88,7.38,3.62,1.16,2.29,1.27,5,.32,7.65-.79,2.2-.73,4.12.2,5.54,1.04,1.6,3.1,2.54,6.15,2.77,1.14.09,2.2.14,3.18.14,3.61,0,6.09-.61,7.42-1.81.17-.16.3-.31.4-.45,1.1.73,2.23,1.37,3.34,1.92Z"/><path class="cls-2" d="M122.83,85.84c-8.82,13.81-18.77,22.77-23.91,26.87-2.01,1.6-3.23,2.42-3.25,2.43-.38.26-.48.77-.22,1.15.16.24.42.37.69.37.16,0,.31-.05.45-.14.04-.03.92-.61,2.39-1.75.47,1.75,1.36,5.33,2.1,9.77-.8.61-3.28,2-8.34.97-3.88-.78-7.79-5.79-4.47-25.08,8.3-5.39,23.18-17.44,26.64-36.27l.08-.45-.34-.31s-4.53-4.11-4.38-8.32c.07-1.82,1.02-3.44,2.83-4.83,1.24-.96,2.83-1.24,4.16-.73,1.97.74,3,2.83,3.13,4.57.1,1.28-.27,2.31-.96,2.71-.84.47-2.21.08-3.87-1.09-.37-.26-.89-.18-1.16.19s-.17.89.2,1.16c2.83,2.01,4.63,1.75,5.64,1.18.17-.09.31-.2.45-.31.78.67,2.25,1.74,3.7,1.74.31,0,.6-.05.9-.15,1.33-.47,2.12-1.97,2.36-4.45.04-.45-.3-.85-.75-.9-.45-.04-.86.3-.9.75-.16,1.73-.6,2.81-1.26,3.04-.86.31-2.27-.66-3.08-1.39.31-.73.45-1.63.36-2.6-.09-1.23-.54-2.58-1.36-3.74.99-1.4,2.62-3.15,3.48-3.1.45.03.85-.32.88-.78.02-.45-.32-.84-.78-.88-1.82-.12-3.77,2.2-4.72,3.49-.5-.41-1.06-.76-1.7-1-.63-.24-1.3-.35-1.97-.34-.07-1.07-.03-3.51,1.59-4.87,1.65-1.38,4.68-1.35,8.77.07,3.4,1.19,5.72,3.51,6.89,6.89,2.77,8.02-1.16,21.86-10.28,36.12Z"/><path class="cls-1" d="M103.78,12.06c-3.67-3.05-9.55-1.73-9.6-1.71l-.59.14-.31-.54c-2.45-4.26-5.71-6.91-9.7-7.88-7.8-1.89-15.9,3.25-15.99,3.3l-.72.46-.44-.73c-.45-.72-4.94-2.37-9.27-1.52-3.95.78-6.31,3.29-7.02,7.44-.53,3.1-.02,5.76,1.53,7.88,2.94,4.05,8.65,4.92,8.71,4.93l.88.12-2.49,10.83c4.54-.79,9.66-.62,15.35.54,6.68,1.36,11.82,3.27,15.79,5.54l2.97-11.54.88.36s5.57,2.28,9.33-.12c2.26-1.43,3.5-4.28,3.69-8.47.19-4.19-.83-7.23-3.01-9.05ZM70.59,24.15c-3.92,2.15-8.66-.97-10.12-4.76-.09-.2.17-.4.34-.26,2.86,2.35,5.71,4.95,9.67,4.59.22-.02.31.31.12.42ZM95.53,24.35c-4.55,4.69-12.22,3.39-16.92-.39-.29-.21,0-.69.31-.54,5.3,2.43,10.94,3.43,16.23.42.31-.17.62.26.37.5Z"/><path class="cls-2" d="M102.12,68.92c-.46-9.17-.97-19.25-12.12-26.11-.02-.02-.05-.02-.07-.04-3.92-2.39-9.13-4.4-16.13-5.82-10.5-2.14-18.96-.83-25.15,3.89-9.05,6.91-11.16,19.31-11.62,26.09-.17,2.56-.92,5.08-2.23,7.51-3.81,7.04-4.53,13.08-2.14,17.97,4.29,8.8,17.32,11.11,17.46,11.13.45.07.75.5.68.95-.07.4-.42.69-.82.69-.04,0-.09,0-.13-.02-.13-.02-.9-.16-2.06-.45-.38,1.68-.49,3.34-.51,4.51-.02.97.69,1.79,1.65,1.93,10.84,1.59,23.41,1.07,28.31.77.96-.07,1.77-.72,2.02-1.64l1.81-6.48c.24-.83.81-1.54,1.57-1.93,2.97-1.57,14.1-7.9,22.26-19.03-2.25-3.76-2.51-8.69-2.77-13.91ZM67.71,54.87c2.75-3.56,8.66-5.68,12.51-2.67.29.24.13.74-.23.78-1.13.14-2.09.23-3.05.4-2.99.5-5.76,1.47-8.75,2.17-.39.12-.72-.36-.48-.68ZM47.04,50.63c2.6-.45,5.19.62,7.15,2.25.44.38,2.72,2.54,1.19,2.67-2.4-.48-4.47-1.49-6.56-2.68-.41-.32-3.13-1.68-1.78-2.24ZM48.9,79.61c-4.96,0-9-5.43-9-12.1s4.04-12.1,9-12.1,9.01,5.43,9.01,12.1-4.04,12.1-9.01,12.1ZM72.03,91.56c-4.39,3.91-12.93,7.08-21.31-1.96,0,0-2.28-4.96,4.31-2.35,6.59,2.6,11.96.07,16.03-3.75,4.06-3.82,5.37,4.15.97,8.06ZM74.77,80.06c-4.96,0-9-5.43-9-12.1s4.04-12.11,9-12.11,9.01,5.43,9.01,12.11-4.05,12.1-9.01,12.1Z"/><path class="cls-3" d="M74.77,55.86c-4.96,0-9,5.43-9,12.11s4.04,12.1,9,12.1,9.01-5.43,9.01-12.1-4.05-12.11-9.01-12.11ZM74.77,78.41c-4.05,0-7.35-4.69-7.35-10.45s3.29-10.45,7.35-10.45,7.36,4.69,7.36,10.45-3.3,10.45-7.36,10.45Z"/><path class="cls-1" d="M74.77,57.51c-4.05,0-7.35,4.69-7.35,10.45s3.29,10.45,7.35,10.45,7.36-4.69,7.36-10.45-3.3-10.45-7.36-10.45ZM72.99,74.74c-2.26,0-4.1-2.52-4.1-5.63s1.83-5.64,4.1-5.64,4.09,2.53,4.09,5.64-1.83,5.63-4.09,5.63Z"/><path class="cls-3" d="M77.08,69.11c0,3.11-1.83,5.63-4.09,5.63s-4.1-2.52-4.1-5.63,1.83-5.64,4.1-5.64,4.09,2.53,4.09,5.64Z"/><path class="cls-3" d="M55.32,68.89c0,3.11-1.83,5.63-4.09,5.63s-4.1-2.52-4.1-5.63,1.83-5.64,4.1-5.64,4.09,2.53,4.09,5.64Z"/><path class="cls-3" d="M48.9,55.42c-4.96,0-9,5.43-9,12.1s4.04,12.1,9,12.1,9.01-5.43,9.01-12.1-4.04-12.1-9.01-12.1ZM48.9,77.96c-4.05,0-7.35-4.69-7.35-10.45s3.29-10.45,7.35-10.45,7.36,4.68,7.36,10.45-3.3,10.45-7.36,10.45Z"/><path class="cls-1" d="M48.9,57.07c-4.05,0-7.35,4.68-7.35,10.45s3.29,10.45,7.35,10.45,7.36-4.69,7.36-10.45-3.3-10.45-7.36-10.45ZM51.23,74.52c-2.26,0-4.1-2.52-4.1-5.63s1.83-5.64,4.1-5.64,4.09,2.53,4.09,5.64-1.83,5.63-4.09,5.63Z"/><path class="cls-3" d="M79.99,52.98c-1.13.14-2.09.23-3.05.4-2.99.5-5.76,1.47-8.75,2.17-.39.12-.72-.36-.48-.68,2.75-3.56,8.66-5.68,12.51-2.67.29.24.13.74-.23.78Z"/><path class="cls-3" d="M55.38,55.55c-2.4-.48-4.47-1.49-6.56-2.68-.41-.32-3.13-1.68-1.78-2.24,2.6-.45,5.19.62,7.15,2.25.44.38,2.72,2.54,1.19,2.67Z"/><path class="cls-3" d="M72.03,91.56c-4.39,3.91-12.93,7.08-21.31-1.96,0,0-2.28-4.96,4.31-2.35,6.59,2.6,11.96.07,16.03-3.75,4.06-3.82,5.37,4.15.97,8.06Z"/><path class="cls-3" d="M70.59,24.15c-3.92,2.15-8.66-.97-10.12-4.76-.09-.2.17-.4.34-.26,2.86,2.35,5.71,4.95,9.67,4.59.22-.02.31.31.12.42Z"/><path class="cls-3" d="M95.53,24.35c-4.55,4.69-12.22,3.39-16.92-.39-.29-.21,0-.69.31-.54,5.3,2.43,10.94,3.43,16.23.42.31-.17.62.26.37.5Z"/><path class="cls-2" d="M57.44,92.01s6.12-2.47,10.54-2.06c3.01.28,3.46.86,2.59,1.63s-5.63,3.46-10.39,2.45-2.74-2.02-2.74-2.02Z"/></g></svg>