<?xml version="1.0" encoding="UTF-8"?><svg id="Layer_2" xmlns="http://www.w3.org/2000/svg" viewBox="0 0 153.44 153.43"><defs><style>.cls-1{fill:#221f20;}</style></defs><g id="Layer_1-2"><path class="cls-1" d="M76.72,22.74c-32,0-58.03,26.03-58.03,58.03,0,1.93,1.57,3.5,3.5,3.5s3.5-1.57,3.5-3.5c0-28.14,22.89-51.03,51.03-51.03s51.03,22.89,51.03,51.03c0,1.93,1.57,3.5,3.5,3.5s3.5-1.57,3.5-3.5c0-32-26.03-58.03-58.03-58.03Z"/><path class="cls-1" d="M153.36,73.33C151.49,31.07,115.58-1.8,73.33.08c-20.47.9-39.37,9.73-53.2,24.84C6.3,40.03-.83,59.63.08,80.1c1.82,41.11,35.84,73.33,76.6,73.33,1.14,0,2.28-.02,3.42-.08,20.47-.9,39.37-9.73,53.2-24.84,13.84-15.11,20.96-34.71,20.06-55.18h0ZM128.14,123.79c-12.57,13.74-29.74,21.75-48.35,22.57-38.4,1.68-71.03-28.17-72.72-66.57-.82-18.6,5.65-36.41,18.23-50.15,12.57-13.74,29.74-21.75,48.35-22.57,1.04-.05,2.08-.07,3.11-.07,37.04,0,67.96,29.28,69.61,66.64.82,18.6-5.65,36.41-18.23,50.15Z"/><circle class="cls-1" cx="76.55" cy="57.5" r="16.06"/><path class="cls-1" d="M102.41,87.9c3.74-1.84,7.29-4.09,10.57-6.71,1.51-1.21,1.75-3.41.54-4.92s-3.41-1.75-4.92-.54c-9.13,7.32-20.16,11.19-31.89,11.19s-22.76-3.87-31.89-11.19c-1.51-1.21-3.71-.97-4.92.54s-.97,3.71.54,4.92c3.28,2.63,6.83,4.87,10.57,6.71l-14.3,14.3c-1.37,1.37-1.37,3.58,0,4.95.68.68,1.58,1.02,2.47,1.02s1.79-.34,2.47-1.02l15.94-15.94c.13-.13.24-.28.35-.43,4.91,1.68,10.04,2.69,15.26,3.01v19.16c0,1.93,1.57,3.5,3.5,3.5s3.5-1.57,3.5-3.5v-19.16c5.21-.32,10.35-1.34,15.26-3.01.11.15.22.3.35.43l15.94,15.94c.68.68,1.58,1.02,2.47,1.02s1.79-.34,2.47-1.03c1.37-1.37,1.37-3.58,0-4.95l-14.3-14.3Z"/></g></svg>