<?xml version="1.0" encoding="UTF-8"?><svg id="Layer_2" xmlns="http://www.w3.org/2000/svg" viewBox="0 0 43.32 47.63"><defs><style>.cls-1{fill:#ffd24f;stroke:#221f20;stroke-miterlimit:10;stroke-width:2px;}.cls-2{fill:#221f20;}</style></defs><g id="Layer_3"><path class="cls-2" d="M25.2,0h-13.24C5.36,0,0,5.36,0,11.96v23.71c0,6.59,5.36,11.96,11.96,11.96h19.4c6.59,0,11.96-5.36,11.96-11.96v-17.55L25.2,0ZM25.69,2.91l14.7,14.7-6.32-.05c-4.62-.04-8.38-3.83-8.38-8.45V2.91ZM41.62,35.67c0,5.66-4.6,10.26-10.26,10.26H11.96c-5.65,0-10.26-4.6-10.26-10.26V11.96C1.7,6.3,6.31,1.7,11.96,1.7h12.03v7.41c0,2.19.7,4.22,1.89,5.88H8.33c-.47,0-.85.38-.85.85s.38.85.85.85h19.08c1.77,1.58,4.1,2.55,6.65,2.57l7.56.06v16.35Z"/><path class="cls-1" d="M40.4,17.61l-6.32-.05c-4.62-.04-8.38-3.83-8.38-8.45V2.91l14.7,14.7Z"/><path class="cls-1" d="M34.06,19.26c-2.55-.02-4.88-.99-6.65-2.57H8.33c-.47,0-.85-.38-.85-.85s.38-.85.85-.85h17.55c-1.19-1.66-1.89-3.69-1.89-5.88V1.7h-12.03C6.31,1.7,1.7,6.3,1.7,11.96v23.71c0,5.66,4.6,10.26,10.26,10.26h19.4c5.65,0,10.26-4.6,10.26-10.26v-16.35l-7.56-.06ZM33.17,35.15H8.33c-.47,0-.85-.38-.85-.85s.38-.85.85-.85h24.84c.47,0,.85.38.85.85s-.38.85-.85.85ZM33.17,25.85H8.33c-.47,0-.85-.38-.85-.85s.38-.85.85-.85h24.84c.47,0,.85.38.85.85s-.38.85-.85.85Z"/><path class="cls-2" d="M34.02,25c0,.47-.38.85-.85.85H8.33c-.47,0-.85-.38-.85-.85s.38-.85.85-.85h24.84c.47,0,.85.38.85.85Z"/><path class="cls-2" d="M34.02,34.3c0,.47-.38.85-.85.85H8.33c-.47,0-.85-.38-.85-.85s.38-.85.85-.85h24.84c.47,0,.85.38.85.85Z"/></g></svg>