<?xml version="1.0" encoding="UTF-8"?><svg id="Layer_2" xmlns="http://www.w3.org/2000/svg" viewBox="0 0 67.92 93.72"><defs><style>.cls-1{fill:#221f20;}</style></defs><g id="Layer_1-2"><path class="cls-1" d="M38.49,11.2l-2.18-2.54C32.44,3.66,27.82.79,22.58.14,13.91-.93,6.88,4.5,5.56,5.6c-.01.01-.03.02-.04.03C-.18,10.26-1.7,17.54,2.07,22.22c1.42,1.75,3.42,2.89,5.78,3.31.6.1,1.19.16,1.78.16,4.59,0,8.88-3.07,10.41-7.69.6-1.8,1.49-3.03,2.73-3.75,2.38-1.39,5.98-.84,8.39-.1C24.01,22.7,4.28,47.6,4.28,61.9c0,17.54,14.27,31.82,31.82,31.82s31.82-14.27,31.82-31.82c0-16.47-26.19-47.04-29.18-50.47-.07-.09-.17-.15-.25-.23ZM19.24,8.19c-2.74,1.6-4.7,4.15-5.85,7.59-.65,1.95-2.52,3.17-4.33,2.85-.69-.12-1.22-.4-1.55-.82-1.1-1.37-.38-4.48,2.43-6.75l.06-.05s.02-.02.03-.03c.23-.19,5.65-4.63,11.67-3.9-.83.27-1.66.63-2.46,1.1ZM36.1,86.72c-13.68,0-24.82-11.13-24.82-24.82,0-10.56,16.04-32.13,24.82-42.75,8.78,10.62,24.82,32.19,24.82,42.75,0,13.68-11.13,24.82-24.82,24.82Z"/></g></svg>