<?xml version="1.0" encoding="UTF-8"?><svg id="Layer_2" xmlns="http://www.w3.org/2000/svg" viewBox="0 0 44.21 18.09"><defs><style>.cls-1{fill:#221f20;}</style></defs><g id="Layer_1-2"><path class="cls-1" d="M37.67,1.03c-.66-.66-1.55-1.03-2.48-1.03h0c-.93,0-1.82.37-2.47,1.03l-4.08,4.08-4.05-4.05c-1.37-1.37-3.58-1.37-4.95,0l-4.07,4.07L11.5,1.06c-1.37-1.37-3.58-1.37-4.95,0L1.03,6.59c-1.37,1.37-1.37,3.58,0,4.95l5.53,5.53c.68.68,1.58,1.02,2.47,1.02s1.79-.34,2.47-1.02l4.07-4.07,4.07,4.07c.68.68,1.58,1.02,2.47,1.02s1.79-.34,2.47-1.02l4.08-4.08,4.05,4.05c.66.66,1.55,1.03,2.47,1.03h0c.93,0,1.82-.37,2.48-1.03l5.52-5.53c1.36-1.37,1.36-3.58,0-4.95l-5.52-5.53ZM8.98,10.79c-.96,0-1.74-.78-1.74-1.74s.78-1.73,1.74-1.73,1.74.78,1.74,1.73-.78,1.74-1.74,1.74ZM22.11,10.79c-.96,0-1.74-.78-1.74-1.74s.78-1.73,1.74-1.73,1.74.78,1.74,1.73-.78,1.74-1.74,1.74ZM35.19,10.79c-.96,0-1.74-.78-1.74-1.74s.78-1.73,1.74-1.73,1.74.78,1.74,1.73-.78,1.74-1.74,1.74Z"/></g></svg>