<?xml version="1.0" encoding="UTF-8"?><svg id="Layer_2" xmlns="http://www.w3.org/2000/svg" viewBox="0 0 304.23 153.98"><defs><style>.cls-1{fill:none;}.cls-1,.cls-2{stroke:#221f20;stroke-miterlimit:10;stroke-width:7px;}.cls-2{fill:#221f20;}</style></defs><g id="Layer_1-2"><rect class="cls-1" x="3.5" y="3.5" width="297.23" height="146.98" rx="16.01" ry="16.01"/><rect class="cls-2" x="20" y="27.37" width="54.54" height="99.24" rx="10.81" ry="10.81"/><path class="cls-1" d="M100.71,27.37h32.92c5.97,0,10.81,4.84,10.81,10.81v77.62c0,5.97-4.84,10.81-10.81,10.81h-32.92c-5.97,0-10.81-4.84-10.81-10.81V38.18c0-5.97,4.84-10.81,10.81-10.81Z"/><path class="cls-1" d="M170.6,27.37h32.92c5.97,0,10.81,4.84,10.81,10.81v77.62c0,5.97-4.84,10.81-10.81,10.81h-32.92c-5.97,0-10.81-4.84-10.81-10.81V38.18c0-5.97,4.84-10.81,10.81-10.81Z"/><path class="cls-1" d="M240.49,27.37h32.92c5.97,0,10.81,4.84,10.81,10.81v77.62c0,5.97-4.84,10.81-10.81,10.81h-32.92c-5.97,0-10.81-4.84-10.81-10.81V38.18c0-5.97,4.84-10.81,10.81-10.81Z"/></g></svg>