<?xml version="1.0" encoding="UTF-8"?><svg id="Layer_2" xmlns="http://www.w3.org/2000/svg" viewBox="0 0 304.23 153.98"><defs><style>.cls-1{fill:none;}.cls-1,.cls-2{stroke:#221f20;stroke-miterlimit:10;stroke-width:7px;}.cls-2{fill:#221f20;}</style></defs><g id="Layer_1-2"><path class="cls-1" d="M284.72,3.5H19.51C10.67,3.5,3.5,10.67,3.5,19.51v114.96c0,8.84,7.17,16.01,16.01,16.01h265.21c8.84,0,16.01-7.17,16.01-16.01V19.51c0-8.84-7.17-16.01-16.01-16.01ZM74.55,115.8c0,5.96-4.84,10.81-10.81,10.81H30.82c-5.97,0-10.81-4.85-10.81-10.81V38.18c0-5.97,4.84-10.81,10.81-10.81h32.92c5.97,0,10.81,4.84,10.81,10.81v77.62ZM144.44,115.8c0,5.96-4.84,10.81-10.81,10.81h-32.92c-5.97,0-10.81-4.85-10.81-10.81V38.18c0-5.97,4.84-10.81,10.81-10.81h32.92c5.97,0,10.81,4.84,10.81,10.81v77.62Z"/><path class="cls-2" d="M74.55,38.18v77.62c0,5.96-4.84,10.81-10.81,10.81H30.82c-5.97,0-10.81-4.85-10.81-10.81V38.18c0-5.97,4.84-10.81,10.81-10.81h32.92c5.97,0,10.81,4.84,10.81,10.81Z"/><path class="cls-2" d="M144.44,38.18v77.62c0,5.96-4.84,10.81-10.81,10.81h-32.92c-5.97,0-10.81-4.85-10.81-10.81V38.18c0-5.97,4.84-10.81,10.81-10.81h32.92c5.97,0,10.81,4.84,10.81,10.81Z"/><path class="cls-1" d="M170.6,27.37h32.92c5.97,0,10.81,4.84,10.81,10.81v77.62c0,5.97-4.84,10.81-10.81,10.81h-32.92c-5.97,0-10.81-4.84-10.81-10.81V38.18c0-5.97,4.84-10.81,10.81-10.81Z"/><path class="cls-1" d="M240.49,27.37h32.92c5.97,0,10.81,4.84,10.81,10.81v77.62c0,5.97-4.84,10.81-10.81,10.81h-32.92c-5.97,0-10.81-4.84-10.81-10.81V38.18c0-5.97,4.84-10.81,10.81-10.81Z"/></g></svg>