<?xml version="1.0" encoding="UTF-8"?><svg id="Layer_2" xmlns="http://www.w3.org/2000/svg" viewBox="0 0 110.67 85.47"><defs><style>.cls-1{fill:#221f20;}</style></defs><g id="Layer_1-2"><path class="cls-1" d="M109.43,66.69c0-.09.02-.17.07-.24.77-1.01,1.17-2.1,1.17-3.25,0-2.39-1.07-4.63-2.92-6.14-1.86-1.51-4.28-2.1-6.66-1.61-2.79.58-5.05,2.7-5.89,5.4h-2.13V12.05c0-6.65-5.41-12.05-12.05-12.05h-37.97C19.31,0,0,19.31,0,43.05v30.37c0,6.64,5.4,12.05,12.05,12.05h68.97c6.63,0,12.03-5.39,12.05-12.02h2.48c1.03,2.25,3.08,3.96,5.54,4.47.55.12,1.11.17,1.65.17,1.82,0,3.58-.61,5.01-1.77,1.85-1.51,2.92-3.75,2.92-6.15,0-1.14-.4-2.23-1.17-3.25-.05-.06-.07-.14-.07-.23ZM86.07,60.85h-7.72c-1.93,0-3.5,1.57-3.5,3.5v5.6c0,1.93,1.57,3.5,3.5,3.5h7.72c-.02,2.77-2.28,5.02-5.05,5.02H12.05c-2.78,0-5.05-2.27-5.05-5.05v-30.37C7,23.17,23.17,7,43.05,7h37.97c2.78,0,5.05,2.26,5.05,5.05v48.8Z"/></g></svg>