<?xml version="1.0" encoding="UTF-8"?><svg id="Layer_2" xmlns="http://www.w3.org/2000/svg" viewBox="0 0 153.43 153.43"><defs><style>.cls-1{fill:#221f20;}</style></defs><g id="Layer_1-2"><path class="cls-1" d="M76.71,0C34.41,0,0,34.41,0,76.71s34.41,76.72,76.71,76.72,76.72-34.41,76.72-76.72S119.02,0,76.71,0ZM73.21,56.82v89.52c-30.77-1.53-56.35-23.11-63.93-51.91h32.99c5.65,0,10.78-3.12,13.39-8.13l17.55-33.82v4.34ZM80.21,146.34V54.56l13.81,30.94c2.42,5.43,7.83,8.93,13.77,8.93h36.34c-7.57,28.8-33.15,50.38-63.93,51.91ZM145.61,87.43h-37.81c-3.19,0-6.08-1.88-7.38-4.79l-18.67-41.81c-1.94-4.34-8.03-4.52-10.22-.3l-22.08,42.54c-1.4,2.69-4.15,4.36-7.17,4.36H7.82c-.54-3.49-.82-7.07-.82-10.72C7,39.45,36.39,8.92,73.21,7.09v29.16c1.03-.5,2.16-.78,3.35-.78,1.32,0,2.56.34,3.65.93V7.09c36.82,1.83,66.22,32.36,66.22,69.63,0,3.64-.28,7.22-.82,10.72Z"/></g></svg>