<?xml version="1.0" encoding="UTF-8"?><svg id="Layer_2" xmlns="http://www.w3.org/2000/svg" viewBox="0 0 35.53 17.48"><defs><style>.cls-1{fill:#221f20;}</style></defs><g id="Layer_1-2"><path class="cls-1" d="M8.74,0C3.92,0,0,3.92,0,8.74s3.92,8.74,8.74,8.74,8.74-3.92,8.74-8.74S13.56,0,8.74,0ZM8.74,10.48c-.96,0-1.74-.78-1.74-1.74s.78-1.74,1.74-1.74,1.74.78,1.74,1.74-.78,1.74-1.74,1.74Z"/><path class="cls-1" d="M26.79,0c-4.82,0-8.74,3.92-8.74,8.74s3.92,8.74,8.74,8.74,8.74-3.92,8.74-8.74S31.61,0,26.79,0ZM26.79,10.48c-.96,0-1.74-.78-1.74-1.74s.78-1.74,1.74-1.74,1.74.78,1.74,1.74-.78,1.74-1.74,1.74Z"/></g></svg>