<?xml version="1.0" encoding="UTF-8"?><svg id="Layer_2" xmlns="http://www.w3.org/2000/svg" viewBox="0 0 153.43 153.43"><defs><style>.cls-1{fill:#221f20;}</style></defs><g id="Layer_1-2"><path class="cls-1" d="M76.71,153.43c42.3,0,76.71-34.41,76.71-76.72S119.02,0,76.71,0,0,34.41,0,76.72s34.41,76.72,76.71,76.72ZM76.71,7c38.44,0,69.71,31.27,69.71,69.72s-31.27,69.72-69.71,69.72S7,115.16,7,76.72,38.27,7,76.71,7Z"/><path class="cls-1" d="M45.97,75.74c.74.54,1.55,1.05,2.42,1.54h-18.13c-1.93,0-3.5,1.57-3.5,3.5s1.57,3.5,3.5,3.5h92.91c1.93,0,3.5-1.57,3.5-3.5s-1.57-3.5-3.5-3.5h-18.13c.86-.49,1.68-1,2.42-1.54,3.88-2.84,5.69-6.11,4.83-8.73-.95-2.89-4.84-4.48-10.98-4.48s-12.01,1.53-16.83,4.31c-4.46,2.57-7.17,5.82-7.27,8.7-.02.61.08,1.2.31,1.74h-1.62c.23-.55.33-1.13.31-1.74h0c-.1-2.88-2.81-6.13-7.27-8.7-4.83-2.78-10.8-4.31-16.83-4.31s-10.03,1.59-10.98,4.48c-.86,2.62.95,5.89,4.83,8.73Z"/><path class="cls-1" d="M125.87,74.27c3.67.62,5.25,2.16,5.63,5.48.21,1.78,1.72,3.09,3.47,3.09.13,0,.27,0,.41-.02,1.92-.22,3.29-1.96,3.07-3.88-.52-4.48-2.93-10.13-11.42-11.57-1.91-.32-3.71.96-4.04,2.86s.96,3.71,2.86,4.04Z"/><path class="cls-1" d="M18.48,82.82c.14.02.28.02.41.02,1.75,0,3.26-1.31,3.47-3.09.39-3.32,1.97-4.86,5.63-5.48,1.91-.32,3.19-2.13,2.86-4.04-.32-1.91-2.12-3.19-4.04-2.86-8.49,1.44-10.89,7.09-11.42,11.57-.22,1.92,1.15,3.66,3.07,3.88Z"/></g></svg>