<?xml version="1.0" encoding="UTF-8"?><svg id="Layer_2" xmlns="http://www.w3.org/2000/svg" viewBox="0 0 82.69 79.29"><defs><style>.cls-1{fill:#221f20;}</style></defs><g id="Layer_1-2"><rect class="cls-1" x="37.88" y="66.91" width="7.35" height="7.35" transform="translate(-.54 .32) rotate(-.44)"/><rect class="cls-1" x="12.13" y="48.5" width="7.35" height="7.35" transform="translate(-15.7 7.68) rotate(-18.44)"/><rect class="cls-1" x="21.67" y="18.33" width="7.35" height="7.35" transform="translate(-8.11 19.36) rotate(-36.44)"/><rect class="cls-1" x="53.33" y="18.08" width="7.35" height="7.35" transform="translate(6.15 55.48) rotate(-54.44)"/><rect class="cls-1" x="63.34" y="48.11" width="7.35" height="7.35" transform="translate(-2.57 100.06) rotate(-72.44)"/><path class="cls-1" d="M68.76,74.65c-1.89-12.3-7.77-21.79-17.48-28.32.16,0,.33.01.49.01,11.49,0,21.55-4.5,29.96-13.44.89-.94,1.18-2.3.77-3.52s-1.47-2.12-2.75-2.33c-12.29-2-23.14.66-32.35,7.89,3.74-11.09,2.64-22.2-3.34-33.13-.62-1.13-1.83-1.87-3.11-1.82-1.29.02-2.47.75-3.07,1.9-5.7,11.07-6.52,22.21-2.49,33.2-9.39-6.99-20.31-9.37-32.54-7.06-1.27.24-2.31,1.16-2.69,2.4-.38,1.24-.06,2.58.86,3.5,8.36,8.43,18.15,12.68,29.18,12.68.53,0,1.07-.02,1.61-.04-9.54,6.77-15.18,16.41-16.75,28.76-.16,1.28.39,2.55,1.45,3.3.6.43,1.31.64,2.02.64.54,0,1.08-.12,1.58-.37,11.12-5.61,18.33-14.14,21.53-25.39,3.49,11.17,10.91,19.51,22.18,24.83.48.23.99.34,1.5.34.74,0,1.48-.24,2.09-.69,1.04-.77,1.56-2.06,1.37-3.34ZM70.58,33.43c-5.22,3.7-10.99,5.65-17.38,5.9,5.22-3.7,10.99-5.65,17.38-5.9ZM12.18,34.18c6.4.08,12.21,1.89,17.53,5.45-6.4-.08-12.21-1.89-17.53-5.45ZM41.11,12.59c1.9,6.11,1.98,12.19.24,18.35-1.9-6.11-1.98-12.19-.24-18.35ZM23.77,68.36c2.05-6.06,5.57-11.03,10.6-14.98-2.05,6.06-5.57,11.03-10.6,14.98ZM48.89,53.19c5.13,3.83,8.77,8.7,10.98,14.71-5.13-3.83-8.77-8.7-10.98-14.71Z"/></g></svg>