<?xml version="1.0" encoding="UTF-8"?><svg id="Layer_2" xmlns="http://www.w3.org/2000/svg" viewBox="0 0 110.42 110.42"><defs><style>.cls-1{fill:#221f20;}</style></defs><g id="Layer_1-2"><path class="cls-1" d="M78.58,52.47c-1.44,0-2-.47-3.42-1.83-1.66-1.59-3.94-3.78-8.27-3.78s-6.6,2.19-8.27,3.78c-1.42,1.36-1.98,1.83-3.42,1.83s-2-.47-3.42-1.83c-1.66-1.6-3.94-3.78-8.27-3.78s-6.6,2.19-8.27,3.78c-1.42,1.36-1.98,1.83-3.42,1.83s-2-.47-3.42-1.83c-1.66-1.6-3.94-3.78-8.26-3.78-1.93,0-3.5,1.57-3.5,3.5s1.57,3.5,3.5,3.5c1.44,0,2,.47,3.42,1.83,1.66,1.6,3.94,3.78,8.26,3.78s6.6-2.19,8.27-3.78c1.42-1.36,1.98-1.83,3.42-1.83s2,.47,3.42,1.83c1.66,1.6,3.94,3.78,8.27,3.78s6.6-2.19,8.27-3.78c1.42-1.36,1.98-1.83,3.42-1.83s2,.47,3.42,1.83c1.66,1.59,3.94,3.78,8.27,3.78s6.61-2.18,8.27-3.78c1.42-1.36,1.98-1.83,3.42-1.83,1.93,0,3.5-1.57,3.5-3.5s-1.57-3.5-3.5-3.5c-4.33,0-6.61,2.18-8.27,3.78-1.42,1.36-1.98,1.83-3.42,1.83Z"/><path class="cls-1" d="M55.21,0C24.77,0,0,24.77,0,55.21s24.77,55.21,55.21,55.21,55.21-24.77,55.21-55.21S85.66,0,55.21,0ZM55.21,103.42c-26.58,0-48.21-21.63-48.21-48.21S28.63,7,55.21,7s48.21,21.63,48.21,48.21-21.63,48.21-48.21,48.21Z"/><path class="cls-1" d="M29.6,65.13s6.49,2.84-1.13,12.41c-7.62,9.58,4.66,13.67,4.66,13.67,0,0-2.46-3.28,3.65-11.03,6.11-7.75,2.71-13.61-7.18-15.06Z"/><path class="cls-1" d="M51.91,65.13s6.49,2.84-1.13,12.41c-7.62,9.58,4.66,13.67,4.66,13.67,0,0-2.46-3.28,3.66-11.03,6.11-7.75,2.71-13.61-7.18-15.06Z"/><path class="cls-1" d="M74.21,65.13s6.49,2.84-1.13,12.41c-7.62,9.58,4.66,13.67,4.66,13.67,0,0-2.46-3.28,3.65-11.03,6.11-7.75,2.71-13.61-7.18-15.06Z"/><path class="cls-1" d="M32.02,44.42v-11.16c3.94-.03,7.13-3.23,7.13-7.18s-3.22-7.18-7.18-7.18v11.16c-3.94.03-7.13,3.23-7.13,7.18s3.22,7.18,7.18,7.18Z"/><path class="cls-1" d="M54.77,44.42v-11.16c3.94-.03,7.13-3.23,7.13-7.18s-3.22-7.18-7.18-7.18v11.16c-3.94.03-7.13,3.23-7.13,7.18s3.22,7.18,7.18,7.18Z"/><path class="cls-1" d="M77.52,44.42v-11.16c3.94-.03,7.13-3.23,7.13-7.18s-3.22-7.18-7.18-7.18v11.16c-3.94.03-7.13,3.23-7.13,7.18s3.22,7.18,7.18,7.18Z"/></g></svg>