<?xml version="1.0" encoding="UTF-8"?><svg id="Layer_2" xmlns="http://www.w3.org/2000/svg" viewBox="0 0 197.67 166.33"><defs><style>.cls-1{fill:#221f20;}</style></defs><g id="Layer_1-2"><path class="cls-1" d="M111.71,23.02c-36.37,0-68.7,23.12-80.43,57.52-.62,1.83.35,3.82,2.18,4.44,1.83.63,3.82-.35,4.44-2.18,10.77-31.57,40.43-52.78,73.81-52.78s61.67,27.67,61.67,61.67c0,26.82-21.82,48.64-48.64,48.64-21.07,0-38.21-17.14-38.21-38.21,0-16.47,13.4-29.87,29.87-29.87,12.79,0,23.2,10.41,23.2,23.2,0,9.85-8.01,17.86-17.86,17.86-7.49,0-13.58-6.09-13.58-13.58,0-5.61,4.56-10.17,10.17-10.17,4.1,0,7.43,3.33,7.43,7.43,0,1.93,1.57,3.5,3.5,3.5s3.5-1.57,3.5-3.5c0-7.96-6.47-14.43-14.43-14.43-9.47,0-17.17,7.7-17.17,17.17,0,11.35,9.23,20.58,20.58,20.58,13.71,0,24.86-11.15,24.86-24.86,0-16.65-13.55-30.2-30.2-30.2-20.33,0-36.87,16.54-36.87,36.87,0,24.93,20.28,45.21,45.21,45.21,30.68,0,55.64-24.96,55.64-55.64,0-37.87-30.81-68.67-68.67-68.67Z"/><path class="cls-1" d="M124.27,2.48c-26.88-5.81-54.31-1.35-77.27,12.57C24.2,28.87,7.68,50.84.48,76.9c-.99,3.57-.44,7.44,1.5,10.6,1.94,3.18,5.15,5.43,8.8,6.17,26.37,5.4,50.28,21.8,65.6,44.98,8.9,13.46,22.3,22.71,37.73,26.04,5.06,1.09,10.12,1.63,15.13,1.63,13.6,0,26.77-3.99,38.15-11.7,15.55-10.55,25.87-26.81,29.04-45.77h0C204.51,60.55,172.13,12.83,124.27,2.48ZM189.53,107.7c-2.86,17.06-12.11,31.67-26.07,41.14-13.96,9.47-30.96,12.67-47.87,9.02-13.64-2.95-25.49-11.14-33.37-23.06-16.34-24.71-41.87-42.2-70.04-47.97-1.78-.36-3.28-1.42-4.23-2.97-.94-1.54-1.2-3.35-.72-5.08,6.72-24.34,22.14-44.84,43.4-57.73,15.28-9.27,32.71-14.04,50.56-14.04,7.17,0,14.4.77,21.6,2.32,44.27,9.57,74.21,53.7,66.74,98.38Z"/></g></svg>