<?xml version="1.0" encoding="UTF-8"?><svg id="Layer_2" xmlns="http://www.w3.org/2000/svg" viewBox="0 0 36.61 36.61"><defs><style>.cls-1{fill:#221f20;}</style></defs><g id="Layer_1-2"><path class="cls-1" d="M7.09,12.42c1.83,0,3.32-1.48,3.32-3.32s-1.48-3.32-3.32-3.32-3.32,1.48-3.32,3.32,1.48,3.32,3.32,3.32Z"/><circle class="cls-1" cx="29.52" cy="9.1" r="3.32"/><path class="cls-1" d="M7.09,24.75c-1.83,0-3.32,1.48-3.32,3.32s1.48,3.32,3.32,3.32,3.32-1.48,3.32-3.32-1.48-3.32-3.32-3.32Z"/><circle class="cls-1" cx="29.52" cy="28.07" r="3.32"/><path class="cls-1" d="M33.74,14.87c-9.66-1.78-10.22-2.34-12-12-.3-1.66-1.75-2.87-3.44-2.87s-3.13,1.21-3.44,2.87c-1.78,9.66-2.34,10.22-12,12-1.66.3-2.86,1.75-2.86,3.44s1.2,3.13,2.86,3.44c9.66,1.78,10.22,2.34,12,11.99.31,1.67,1.75,2.87,3.44,2.87s3.14-1.2,3.44-2.87c1.78-9.65,2.34-10.21,12-11.99,1.66-.31,2.87-1.75,2.87-3.44s-1.21-3.14-2.87-3.44ZM18.31,20.04c-.96,0-1.74-.78-1.74-1.74s.78-1.73,1.74-1.73,1.74.78,1.74,1.73-.78,1.74-1.74,1.74Z"/></g></svg>