<?xml version="1.0" encoding="UTF-8"?><svg id="Layer_2" xmlns="http://www.w3.org/2000/svg" viewBox="0 0 153.43 153.43"><defs><style>.cls-1{fill:#221f20;}</style></defs><g id="Layer_1-2"><path class="cls-1" d="M76.71,0C34.41,0,0,34.41,0,76.72s34.41,76.72,76.71,76.72,76.72-34.41,76.72-76.72S119.02,0,76.71,0ZM73,84.66v13.23c0,1.93,1.57,3.5,3.5,3.5s3.5-1.57,3.5-3.5v-13.23h28.69c-.75,9.07-4.15,23.39-9.98,36.61-6.92,15.68-14.94,24.67-22,24.67s-15.08-8.99-22-24.67c-5.83-13.22-9.23-27.54-9.98-36.61h28.26ZM92.62,144.58c13.5-14.68,22.01-44.98,23.11-60.3h7.44c1.93,0,3.5-1.57,3.5-3.5s-1.57-3.5-3.5-3.5H30.26c-1.93,0-3.5,1.57-3.5,3.5s1.57,3.5,3.5,3.5h7.44c.7,11,4.86,26.78,10.62,39.82,4.22,9.56,8.48,16.09,12.52,20.49-30.81-7.21-53.83-34.89-53.83-67.87C7,38.27,38.27,7,76.71,7s69.72,31.27,69.72,69.72c0,32.97-23.01,60.65-53.81,67.86Z"/><path class="cls-1" d="M122.79,70.23c-.32,1.91.96,3.71,2.86,4.04,3.67.62,5.25,2.16,5.63,5.48.21,1.78,1.72,3.09,3.47,3.09.13,0,.27,0,.41-.02,1.92-.22,3.29-1.96,3.07-3.88-.52-4.48-2.93-10.13-11.42-11.57-1.91-.32-3.71.96-4.04,2.86Z"/><path class="cls-1" d="M26.61,67.37c-8.49,1.44-10.89,7.09-11.42,11.57-.22,1.92,1.15,3.66,3.07,3.88.14.02.28.02.41.02,1.75,0,3.26-1.31,3.47-3.09.39-3.32,1.97-4.86,5.63-5.48,1.91-.32,3.19-2.13,2.86-4.04-.32-1.91-2.13-3.19-4.04-2.86Z"/></g></svg>