<?xml version="1.0" encoding="UTF-8"?><svg id="Layer_2" xmlns="http://www.w3.org/2000/svg" viewBox="0 0 153.43 153.43"><defs><style>.cls-1{fill:#221f20;}</style></defs><g id="Layer_1-2"><path class="cls-1" d="M76.71,0C34.41,0,0,34.41,0,76.72s34.41,76.72,76.71,76.72,76.72-34.41,76.72-76.72S119.02,0,76.71,0ZM76.71,146.43c-38.44,0-69.71-31.27-69.71-69.72S38.27,7,76.71,7s69.72,31.27,69.72,69.72-31.27,69.72-69.72,69.72Z"/><path class="cls-1" d="M30.86,34.36c0,19.07,11.7,35.45,28.3,42.35-16.6,6.9-28.3,23.28-28.3,42.35v3.5h91.7v-3.5c0-19.07-11.7-35.45-28.3-42.35,16.6-6.9,28.3-23.28,28.3-42.35v-3.5H30.86v3.5ZM115.41,115.57H38.02c1.77-19.79,18.45-35.35,38.69-35.35s36.92,15.56,38.7,35.35ZM115.41,37.86c-1.78,19.79-18.45,35.35-38.7,35.35s-36.92-15.56-38.69-35.35h77.39Z"/></g></svg>