<?xml version="1.0" encoding="UTF-8"?><svg id="Layer_2" xmlns="http://www.w3.org/2000/svg" viewBox="0 0 163.36 151.68"><defs><style>.cls-1{fill:#221f20;}</style></defs><g id="Layer_1-2"><path class="cls-1" d="M16.43,151.68h130.5c5.86,0,11.14-3.01,14.12-8.05,2.98-5.04,3.08-11.12.26-16.25L96.07,8.51C93.14,3.18,87.76,0,81.68,0s-11.46,3.18-14.38,8.51L2.05,127.38c-2.82,5.14-2.72,11.21.26,16.25,2.98,5.04,8.26,8.05,14.12,8.05ZM81.68,7c3.49,0,6.57,1.82,8.25,4.88l8.85,16.12c-.66-.01-.9-.19-1.87-1.12-1.27-1.22-3.2-3.07-6.79-3.07s-5.52,1.85-6.79,3.07c-1.01.97-1.22,1.12-1.94,1.12s-.94-.16-1.95-1.12c-1.27-1.22-3.2-3.07-6.79-3.07s-5.52,1.85-6.79,3.07c-.57.55-.88.83-1.18.97l8.77-15.97c1.68-3.06,4.76-4.88,8.25-4.88ZM61,34.52c.83.29,1.77.48,2.9.48,3.59,0,5.52-1.85,6.79-3.07,1.01-.97,1.22-1.12,1.94-1.12s.94.16,1.95,1.12c1.27,1.22,3.2,3.07,6.79,3.07s5.52-1.85,6.79-3.07c1.01-.97,1.22-1.12,1.94-1.12s.94.16,1.95,1.12c1.27,1.22,3.2,3.07,6.79,3.07,1.36,0,2.47-.27,3.4-.67l7.28,13.26c-.5.42-.96.84-1.36,1.23-1.42,1.36-1.98,1.83-3.42,1.83s-2.01-.47-3.42-1.83c-1.66-1.59-3.94-3.78-8.27-3.78s-6.6,2.18-8.27,3.78c-1.42,1.36-1.98,1.83-3.42,1.83s-2-.47-3.42-1.83c-1.66-1.6-3.94-3.78-8.27-3.78s-6.6,2.18-8.27,3.78c-1.42,1.36-1.98,1.83-3.42,1.83s-2-.47-3.42-1.83c-.29-.28-.61-.58-.95-.88l7.36-13.42ZM146.93,144.68H16.43c-3.36,0-6.39-1.73-8.1-4.62-1.71-2.89-1.77-6.38-.15-9.32l2.52-4.6c3.66.4,5.69,2.32,8.17,4.71,3.13,3,7.02,6.74,14.44,6.74s11.31-3.74,14.44-6.74c2.79-2.68,4.99-4.79,9.59-4.79s6.8,2.11,9.59,4.79c3.13,3,7.02,6.74,14.44,6.74s11.31-3.74,14.44-6.74c2.79-2.68,4.99-4.79,9.59-4.79s6.8,2.12,9.59,4.79c3.13,3,7.02,6.74,14.44,6.74s11.31-3.74,14.44-6.74c2.61-2.51,4.73-4.49,8.76-4.74l2.54,4.63c1.62,2.94,1.56,6.43-.15,9.32s-4.74,4.62-8.1,4.62ZM50.16,54.27c1.63,1.54,3.86,3.38,7.84,3.38,4.33,0,6.6-2.18,8.27-3.78,1.42-1.36,1.98-1.83,3.42-1.83s2,.47,3.42,1.83c1.66,1.59,3.94,3.78,8.27,3.78s6.6-2.18,8.27-3.78c1.42-1.36,1.98-1.83,3.42-1.83s2.01.47,3.42,1.83c1.66,1.59,3.94,3.78,8.27,3.78s6.58-2.16,8.25-3.76l8.39,15.29c-1.71.93-3,2.15-4.06,3.17-1.76,1.69-2.82,2.71-5.25,2.71s-3.49-1.02-5.25-2.71c-2.05-1.97-4.85-4.66-10.1-4.66s-8.05,2.69-10.1,4.66c-1.76,1.69-2.82,2.71-5.25,2.71s-3.49-1.02-5.25-2.71c-2.05-1.97-4.85-4.66-10.1-4.66s-8.05,2.69-10.1,4.66c-1.76,1.69-2.82,2.71-5.25,2.71s-3.49-1.02-5.25-2.71c-.97-.93-2.11-2.02-3.6-2.91l8.33-15.17ZM38.46,75.6c.69.45,1.35,1.05,2.13,1.8,2.05,1.97,4.85,4.66,10.1,4.66s8.05-2.69,10.1-4.66c1.76-1.69,2.82-2.71,5.25-2.71s3.49,1.02,5.25,2.71c2.05,1.97,4.85,4.66,10.1,4.66s8.05-2.69,10.1-4.66c1.76-1.69,2.82-2.71,5.25-2.71s3.49,1.02,5.25,2.71c2.05,1.97,4.85,4.66,10.1,4.66s8.05-2.69,10.1-4.66c.95-.91,1.71-1.62,2.58-2.08l10.43,19.01c-1.83,1.11-3.26,2.48-4.55,3.71-2.41,2.31-4.15,3.99-7.91,3.99s-5.5-1.67-7.91-3.99c-2.76-2.64-6.19-5.94-12.76-5.94s-10.01,3.29-12.76,5.94c-2.41,2.31-4.15,3.99-7.91,3.99s-5.5-1.67-7.91-3.99c-2.75-2.64-6.18-5.94-12.76-5.94s-10.01,3.29-12.76,5.94c-2.41,2.31-4.15,3.99-7.91,3.99s-5.5-1.67-7.91-3.99c-1.17-1.13-2.49-2.36-4.1-3.42l10.44-19.02ZM27.27,103.09c2.75,2.64,6.18,5.94,12.76,5.94s10-3.29,12.76-5.94c2.41-2.31,4.15-3.99,7.91-3.99s5.5,1.67,7.91,3.99c2.75,2.64,6.18,5.94,12.76,5.94s10-3.29,12.76-5.94c2.41-2.31,4.15-3.99,7.91-3.99s5.5,1.67,7.91,3.99c2.76,2.64,6.19,5.94,12.76,5.94s10.01-3.29,12.76-5.94c1.08-1.03,2.02-1.93,3.07-2.61l10.49,19.12c-4.67,1.12-7.59,3.88-10.02,6.22-2.79,2.68-4.99,4.79-9.59,4.79s-6.8-2.11-9.59-4.79c-3.13-3-7.02-6.74-14.44-6.74s-11.31,3.74-14.44,6.74c-2.79,2.68-4.99,4.79-9.59,4.79s-6.8-2.11-9.59-4.79c-3.13-3-7.02-6.74-14.44-6.74s-11.31,3.74-14.44,6.74c-2.79,2.68-4.99,4.79-9.59,4.79s-6.8-2.11-9.59-4.79c-2.34-2.25-5.14-4.89-9.49-6.08l10.39-18.94c.88.64,1.72,1.41,2.64,2.3Z"/></g></svg>